<ttFont>
<head>
    <!-- Most of this table will be recalculated by the compiler -->
    <tableVersion value="1.0"/>
    <fontRevision value="3.2"/>
    <checkSumAdjustment value="0x4d13e219"/>
    <magicNumber value="0x5f0f3cf5"/>
    <flags value="00000000 00000011"/>
    <unitsPerEm value="1000"/>
    <created value="Fri Dec 22 01:44:15 2017"/>
    <modified value="Fri Dec 22 01:44:15 2017"/>
    <xMin value="-526"/>
    <yMin value="-564"/>
    <xMax value="2591"/>
    <yMax value="1053"/>
    <macStyle value="00000000 00000000"/>
    <lowestRecPPEM value="3"/>
    <fontDirectionHint value="2"/>
    <indexToLocFormat value="0"/>
    <glyphDataFormat value="0"/>
  </head>
          <CharString index="0">
            -10 callsubr
            -123 -79 -80 -121 -16 2 -16 3 -16 hvcurveto
            63 hlineto
            -2 16 -1 15 16 vvcurveto
            89 54 57 83 344 callsubr
            vhcurveto
            -148 -171 hlineto
            -132 71 -88 135 vhcurveto
            return
          </CharString>
          <CharString index="1">
            63 -28 -59 50 -98 hhcurveto
            -124 -93 -88 -139 -91 callsubr
            hvcurveto
            return
          </CharString>
          <CharString index="2">
            rmoveto
            -103 -79 68 115 111 82 68 100 129 290 callsubr
            -129 vhcurveto
            return
          </CharString>
          <CharString index="3">
            -103 callgsubr
            61 return
          </CharString>
          <CharString index="4">
            -53 -19 -55 -72 -69 -22 54 51 vhcurveto
            31 -62 vlineto
            -1 -10 0 -10 -10 vvcurveto
            -91 50 -71 105 111 43 76 90 vhcurveto
            282 return
          </CharString>
          <CharString index="5">
            71 319 hlineto
            152 -93 83 -128 -130 -82 -84 -111 -16 vhcurveto
            69 hlineto
            84 13 60 50 84 hhcurveto
            96 53 -63 -110 3 hvcurveto
            -181 hlineto
            -143 -68 -74 -96 -94 75 -66 107 97 81 54 72 32 hvcurveto
            -322 39 rmoveto
            63 46 45 95 vhcurveto
            181 -18 hlineto
            -123 -96 -71 -101 -76 -49 42 62 vhcurveto
            endchar
          </CharString>
          <CharString index="6">
            57 vlineto
            -1 -11 -10 -1 -9 hhcurveto
            -113 -59 78 107 97 49 73 97 93 -90 callgsubr
            return
          </CharString>
          <CharString index="7">
            50 callgsubr
            149 109 232 callgsubr
            -121 70 546 -70 -120 vlineto
            69 -31 -75 59 -110 -96 callsubr
            return
          </CharString>
          <CharString index="8">
            57 vlineto
            -1 -11 -10 -1 -9 hhcurveto
            -113 -59 78 107 97 49 73 return
          </CharString>
          <CharString index="9">
            rmoveto
            43 hlineto
            31 4 16 14 22 41 18 -47 53 hhcurveto
            47 36 34 59 6 hvcurveto
            -42 hlineto
            -30 -4 -18 -15 -22 -43 -17 47 -52 hhcurveto
            -47 -33 -32 -61 -8 hvcurveto
            return
          </CharString>
          <CharString index="10">
            -78 callgsubr
            48 80 97 return
          </CharString>
          <CharString index="11">
            hhcurveto
            -150 -100 callgsubr
            return
          </CharString>
          <CharString index="12">
            250 callsubr
            85 47 96 117 161 callgsubr
            vhcurveto
            -59 callsubr
            -96 -58 -51 -65 -27 hvcurveto
            236 494 54 return
          </CharString>
          <CharString index="13">
            rmoveto
            -66 -49 45 70 73 52 44 74 hvcurveto
            102 -88 hlineto
            -91 -43 -53 -70 vhcurveto
            return
          </CharString>
          <CharString index="14">
            -16 -92 callgsubr
            return
          </CharString>
          <CharString index="15">
            -134 320 callgsubr
            3 0 4 4 vvcurveto
            128 98 callgsubr
            -94 -78 -116 vhcurveto
            return
          </CharString>
          <CharString index="16">
            -144 91 -89 124 97 62 51 64 28 return
          </CharString>
          <CharString index="17">
            -89 callsubr
            64 -28 48 -38 29 hvcurveto
            return
          </CharString>
          <CharString index="18">
            -83 callsubr
            70 111 return
          </CharString>
          <CharString index="19">
            -69 callsubr
            -124 -80 -88 -138 -138 return
          </CharString>
          <CharString index="20">
            -82 callgsubr
            vlineto
            return
          </CharString>
          <CharString index="21">
            1 1 12 hvcurveto
            -70 callsubr
            return
          </CharString>
          <CharString index="22">
            56 77 260 rmoveto
            -185 112 -82 142 142 112 82 185 vhcurveto
            439 -70 -440 vlineto
            -145 -74 -59 -109 -109 -76 59 145 vhcurveto
            440 -70 vlineto
            return
          </CharString>
          <CharString index="23">
            rmoveto
            -104 -92 70 119 49 15 42 24 31 hvcurveto
            291 -261 rlineto
            -30 -31 -45 -20 -58 hhcurveto
            return
          </CharString>
          <CharString index="24">
            -72 callsubr
            108 82 return
          </CharString>
          <CharString index="25">
            -73 callsubr
            116 70 81 115 vhcurveto
            return
          </CharString>
          <CharString index="26">
            -82 callsubr
            112 return
          </CharString>
          <CharString index="27">
            rmoveto
            -107 callsubr
            endchar
          </CharString>
          <CharString index="28">
            -90 129 118 72 77 120 vhcurveto
            return
          </CharString>
          <CharString index="29">
            rmoveto
            -154 -102 58 111 75 50 63 121 hvcurveto
            21 53 -22 hlineto
            -104 284 callgsubr
            112 393 -134 vlineto
            -74 -10 -68 -48 -109 vvcurveto
            -33 6 -35 13 -34 vhcurveto
            209 callgsubr
            return
          </CharString>
          <CharString index="30">
            rmoveto
            -46 hlineto
            89 -21 -71 62 -99 165 callgsubr
            235 588 -98 vlineto
            -42 callsubr
            -640 -250 -107 callgsubr
            881 427 rmoveto
            98 return
          </CharString>
          <CharString index="31">
            -54 393 -74 callsubr
            return
          </CharString>
          <CharString index="32">
            rmoveto
            131 63 -101 -92 -39 -12 -43 -26 -35 hvcurveto
            -289 261 rlineto
            32 35 47 17 51 hhcurveto
            return
          </CharString>
          <CharString index="33">
            -98 vlineto
            -83 callgsubr
            return
          </CharString>
          <CharString index="34">
            -22 callsubr
            -167 vlineto
            -115 66 -81 117 return
          </CharString>
          <CharString index="35">
            -57 callsubr
            -74 114 return
          </CharString>
          <CharString index="36">
            70 104 hvcurveto
            121 3 vlineto
            96 83 45 152 hvcurveto
            140 return
          </CharString>
          <CharString index="37">
            -99 callsubr
            97 93 -68 callsubr
            return
          </CharString>
          <CharString index="38">
            -2 hlineto
            72 -16 -48 81 -108 hhcurveto
            return
          </CharString>
          <CharString index="39">
            31 callgsubr
            120 48 80 97 return
          </CharString>
          <CharString index="40">
            -88 callsubr
            79 -105 154 -25 callsubr
            return
          </CharString>
          <CharString index="41">
            -108 -62 -69 -116 vhcurveto
            -98 -204 hlineto
            -126 64 -37 callgsubr
            return
          </CharString>
          <CharString index="42">
            302 -64 callsubr
            return
          </CharString>
          <CharString index="43">
            -8 rmoveto
            -107 callsubr
            return
          </CharString>
          <CharString index="44">
            rmoveto
            -66 -49 45 70 73 52 44 75 hvcurveto
            100 -88 hlineto
            -91 -42 -53 -70 vhcurveto
            1 -55 72 callsubr
            return
          </CharString>
          <CharString index="45">
            154 79 105 138 120 -60 85 -97 18 hvcurveto
            141 260 54 return
          </CharString>
          <CharString index="46">
            -1 16 21 0 26 -51 callgsubr
            return
          </CharString>
          <CharString index="47">
            rmoveto
            -93 -62 61 93 93 62 61 93 94 62 -61 -93 -93 -62 -61 -94 hvcurveto
            -275 -139 rmoveto
            -80 callgsubr
            return
          </CharString>
          <CharString index="48">
            -52 vlineto
            -4 17 22 -3 22 hhcurveto
            119 90 85 146 136 -90 90 -120 return
          </CharString>
          <CharString index="49">
            rmoveto
            -54 vlineto
            205 119 rlineto
            63 vlineto
            return
          </CharString>
          <CharString index="50">
            -6 callgsubr
            -113 84 return
          </CharString>
          <CharString index="51">
            -102 445 700 rmoveto
            -365 -700 365 58 -295 265 265 58 -265 261 295 hlineto
            return
          </CharString>
          <CharString index="52">
            49 hlineto
            -2 5 -1 9 6 vvcurveto
            60 47 38 54 66 46 -48 -66 -86 -75 -59 -102 -140 -95 93 131 157 109 74 142 vhcurveto
            return
          </CharString>
          <CharString index="53">
            137 70 71 95 127 -104 40 -100 hvcurveto
            -45 hlineto
            -62 -57 24 69 77 73 16 62 hvcurveto
            return
          </CharString>
          <CharString index="54">
            166 48 350 rmoveto
            -210 148 -146 194 156 116 78 132 50 vhcurveto
            -82 hlineto
            -91 -39 -82 -58 -119 hhcurveto
            -153 -117 113 182 183 117 113 153 119 82 -58 -93 39 hvcurveto
            82 hlineto
            134 -50 -116 78 -156 hhcurveto
            -194 -148 -147 -210 hvcurveto
            return
          </CharString>
          <CharString index="55">
            vhcurveto
            -141 -54 141 -686 63 hlineto
            endchar
          </CharString>
          <CharString index="56">
            251 callgsubr
            -105 -86 -43 -70 -106 -67 68 105 120 93 60 113 vhcurveto
            238 callsubr
            152 hlineto
            1 54 rlineto
            return
          </CharString>
          <CharString index="57">
            rmoveto
            -3 193 -323 -79 148 vvcurveto
            48 46 39 73 83 45 -46 -61 4 vhcurveto
            70 hlineto
            105 -6 -77 62 -117 hhcurveto
            -115 -77 -67 -81 hvcurveto
            -205 328 79 -135 vvcurveto
            -52 -44 -42 -78 -89 -52 43 60 -6 vhcurveto
            -72 hlineto
            return
          </CharString>
          <CharString index="58">
            918 827 161 rmoveto
            -95 -73 65 112 108 76 65 93 119 50 -93 -82 hvcurveto
            -1 vlineto
            -77 -50 -97 -120 vhcurveto
            231 -161 rmoveto
            330 vlineto
            85 46 96 117 91 72 -66 -106 -113 -69 -63 -90 -16 -17 1 4 -13 vhcurveto
            -52 vlineto
            -4 16 22 -3 22 hhcurveto
            119 90 85 146 136 -89 90 -120 -95 -59 -50 -64 -27 hvcurveto
            234 494 54 -957 -54 402 -233 vlineto
            63 -28 -60 50 -98 hhcurveto
            -124 -92 -88 -139 -144 90 -89 124 99 61 51 65 28 hvcurveto
            -222 vlineto
            -695 -64 callsubr
            return
          </CharString>
          <CharString index="59">
            -107 -78 -62 -108 -101 -8 callgsubr
            return
          </CharString>
          <CharString index="60">
            686 140 54 return
          </CharString>
          <CharString index="61">
            294 callsubr
            65 callgsubr
            hvcurveto
            -55 callsubr
            return
          </CharString>
          <CharString index="62">
            70 48 274 -41 callgsubr
            return
          </CharString>
          <CharString index="63">
            47 546 hmoveto
            74 hlineto
            -254 690 rlineto
            -79 hlineto
            -255 -690 rlineto
            74 hlineto
            61 166 rlineto
            318 hlineto
            return
          </CharString>
          <CharString index="64">
            289 callsubr
            vhcurveto
            231 callsubr
            endchar
          </CharString>
          <CharString index="65">
            -108 -62 -69 -116 vhcurveto
            return
          </CharString>
          <CharString index="66">
            -316 vlineto
            -118 return
          </CharString>
          <CharString index="67">
            58 hlineto
            -2 15 -2 15 15 vvcurveto
            77 46 52 79 76 44 -55 -69 -123 -111 -27 -101 vhcurveto
            return
          </CharString>
          <CharString index="68">
            8 48 273 rmoveto
            -173 111 -108 154 137 89 77 109 25 vhcurveto
            -75 hlineto
            -80 -19 -65 -47 -92 hhcurveto
            -107 -87 74 148 148 87 73 107 92 66 -48 -78 18 hvcurveto
            75 hlineto
            113 -25 -89 73 -137 hhcurveto
            -154 -111 -108 -173 hvcurveto
            return
          </CharString>
          <CharString index="69">
            rmoveto
            -80 callgsubr
            417 -228 vlineto
            52 -26 -51 41 -82 hhcurveto
            -112 -87 -79 -122 -89 41 -66 64 -31 hvcurveto
            -59 -26 -54 -51 -87 hhcurveto
            return
          </CharString>
          <CharString index="70">
            210 186 hmoveto
            71 hlineto
            151 458 151 -458 rlineto
            70 hlineto
            171 546 rlineto
            -69 hlineto
            -135 -476 -151 476 rlineto
            -70 hlineto
            -153 -475 -136 475 rlineto
            -71 hlineto
            return
          </CharString>
          <CharString index="71">
            63 -96 callgsubr
            return
          </CharString>
          <CharString index="72">
            rmoveto
            25 -18 17 -25 -25 -18 -17 -25 -25 18 -17 25 25 18 17 25 vhcurveto
            return
          </CharString>
          <CharString index="73">
            -84 -56 55 -73 callgsubr
            -79 -57 -55 -79 hvcurveto
            596 29 rmoveto
            -135 -79 95 148 hvcurveto
            126 4 81 53 127 128 callsubr
            273 -174 rmoveto
            -96 callgsubr
            return
          </CharString>
          <CharString index="74">
            -144 -104 -96 -144 -144 107 -94 143 return
          </CharString>
          <CharString index="75">
            -54 -40 callgsubr
            return
          </CharString>
          <CharString index="76">
            rmoveto
            119 85 63 103 38 hvcurveto
            -94 38 82 185 callgsubr
            141 54 -687 -54 203 -75 vlineto
            -128 -75 -38 -112 vhcurveto
            -17 hlineto
            -12 -1 -14 -13 vvcurveto
            0 vlineto
            -152 -82 -96 -138 -143 -71 338 callgsubr
            20 0 27 211 callsubr
            141 103 -70 77 -110 return
          </CharString>
          <CharString index="77">
            250 callsubr
            84 1 46 97 117 hhcurveto
            161 callgsubr
            hvcurveto
            -59 callsubr
            -96 -58 -51 -65 -27 hvcurveto
            236 494 54 return
          </CharString>
          <CharString index="78">
            rmoveto
            205 -119 rlineto
            54 vlineto
            -205 128 rlineto
            return
          </CharString>
          <CharString index="79">
            -19 callgsubr
            167 return
          </CharString>
          <CharString index="80">
            -231 vlineto
            231 callgsubr
            return
          </CharString>
          <CharString index="81">
            hhcurveto
            -40 -44 41 hlineto
            91 44 -7 -187 102 hvcurveto
            87 -102 -37 3 -100 hhcurveto
            -39 -43 40 hlineto
            return
          </CharString>
          <CharString index="82">
            91 callgsubr
            97 93 31 callgsubr
            return
          </CharString>
          <CharString index="83">
            vvcurveto
            106 -84 60 -98 -103 -85 -62 -111 -102 75 -57 86 -16 vhcurveto
            -90 -46 -96 -47 -116 vvcurveto
            -94 67 -69 103 88 44 53 29 11 vhcurveto
            return
          </CharString>
          <CharString index="84">
            -235 -103 vlineto
            -48 callsubr
            return
          </CharString>
          <CharString index="85">
            -28 callsubr
            -64 return
          </CharString>
          <CharString index="86">
            rmoveto
            426 -133 -125 94 callsubr
            168 180 146 54 -634 hlineto
            return
          </CharString>
          <CharString index="87">
            193 callgsubr
            -147 96 -88 145 11 10 1 1 10 vhcurveto
            -149 -144 rlineto
            -4 69 vlineto
            214 210 rlineto
            1 1 0 1 vvcurveto
            6 5 rlineto
            0 vlineto
            21 return
          </CharString>
          <CharString index="88">
            -60 callgsubr
            endchar
          </CharString>
          <CharString index="89">
            166 -63 callsubr
            return
          </CharString>
          <CharString index="90">
            797 494 rmoveto
            104 92 -65 -129 -4 hvcurveto
            -392 hlineto
            127 7 92 67 101 hhcurveto
            256 -321 rmoveto
            -76 hlineto
            -74 -17 -67 -48 -97 hhcurveto
            -95 -97 63 134 -8 hvcurveto
            461 hlineto
            3 19 1 14 21 vvcurveto
            136 -96 116 -158 -95 -80 -42 -90 -44 vhcurveto
            124 -59 -123 vlineto
            80 -39 -76 51 -102 hhcurveto
            -153 -111 -109 -171 -171 111 -111 150 105 78 57 77 35 hvcurveto
            -126 61 126 vlineto
            -85 36 86 -49 97 hhcurveto
            133 88 78 103 25 hvcurveto
            -934 101 rmoveto
            139 88 80 115 112 91 -84 -136 -136 -91 -84 -112 -115 -88 83 138 vhcurveto
            return
          </CharString>
          <CharString index="91">
            -25 callgsubr
            76 62 120 123 44 -75 -49 hvcurveto
            -113 vlineto
            -126 65 -90 128 118 73 77 120 vhcurveto
            return
          </CharString>
          <CharString index="92">
            rmoveto
            67 hlineto
            -122 193 rlineto
            -64 hlineto
            return
          </CharString>
          <CharString index="93">
            -77 -126 -86 40 -63 65 -32 hvcurveto
            -59 -26 -54 -53 -88 hhcurveto
            return
          </CharString>
          <CharString index="94">
            73 callgsubr
            127 3 78 54 107 callsubr
            return
          </CharString>
          <CharString index="95">
            25 callsubr
            vlineto
            return
          </CharString>
          <CharString index="96">
            -82 -118 hvcurveto
            -13 return
          </CharString>
          <CharString index="97">
            118 11 callgsubr
            -49 -60 -83 -63 callgsubr
            return
          </CharString>
          <CharString index="98">
            -60 278 80 rmoveto
            -186 466 rlineto
            -77 hlineto
            224 -543 -106 -260 rlineto
            73 hlineto
            324 803 rlineto
            -72 hlineto
            return
          </CharString>
          <CharString index="99">
            895 1389 295 callgsubr
            -1558 -54 1354 -184 -272 -168 vlineto
            -82 -47 -56 -77 -73 -46 55 86 vhcurveto
            13 vlineto
            118 -74 80 -111 -109 -48 -80 -73 -16 vhcurveto
            97 callgsubr
            92 87 43 -65 -97 1 vhcurveto
            -114 3 65 -76 114 hhcurveto
            116 70 297 callsubr
            210 -447 vlineto
            return
          </CharString>
          <CharString index="100">
            -107 callgsubr
            -29 -233 rmoveto
            -101 callgsubr
            return
          </CharString>
          <CharString index="101">
            248 callsubr
            -60 hlineto
            58 -29 -67 47 -112 hhcurveto
            -151 -107 -78 -172 -163 103 -85 157 hvcurveto
            -16 callsubr
            return
          </CharString>
          <CharString index="102">
            49 vlineto
            -9 -22 -23 -5 -19 hhcurveto
            -37 -25 18 33 26 16 24 47 23 hvcurveto
            return
          </CharString>
          <CharString index="103">
            vvcurveto
            41 callgsubr
            vhcurveto
            223 callgsubr
            return
          </CharString>
          <CharString index="104">
            687 907 288 callgsubr
            124 4 82 52 124 55 callgsubr
            274 -174 183 callgsubr
            -1350 -54 867 -75 vlineto
            -111 -75 -32 -113 vhcurveto
            -262 -133 hlineto
            -19 callgsubr
            133 -64 -133 33 callsubr
            79 156 vlineto
            10 9 0 7 hhcurveto
            -179 3 94 -116 166 hhcurveto
            112 74 53 64 35 hvcurveto
            -236 vlineto
            return
          </CharString>
          <CharString index="105">
            hhcurveto
            -91 88 callsubr
            return
          </CharString>
          <CharString index="106">
            250 callgsubr
            hlineto
            -46 callgsubr
            return
          </CharString>
          <CharString index="107">
            765 397 204 callgsubr
            751 -77 vlineto
            -114 -65 -37 -108 -1 vhcurveto
            65 -31 -60 32 -64 hhcurveto
            348 callgsubr
            hvcurveto
            209 callgsubr
            587 90 rmoveto
            -131 -73 81 134 -16 hvcurveto
            -2 -1 -1 7 -1 6 -1 6 rlinecurve
            135 84 57 335 callgsubr
            -95 -78 -115 vhcurveto
            return
          </CharString>
          <CharString index="108">
            310 258 rmoveto
            -110 -49 73 119 hvcurveto
            181 vlineto
            302 -267 rlineto
            -49 -9 -47 -57 -87 hhcurveto
            return
          </CharString>
          <CharString index="109">
            hhcurveto
            42 callgsubr
            return
          </CharString>
          <CharString index="110">
            304 callsubr
            61 callgsubr
            hvcurveto
            -206 63 -51 callsubr
            -667 hlineto
            return
          </CharString>
          <CharString index="111">
            rmoveto
            402 -107 hlineto
            -119 -63 -58 -115 vhcurveto
            -107 -196 hlineto
            -125 64 -90 128 118 71 79 122 vhcurveto
            16 -62 -17 vlineto
            -87 -49 -58 -79 -88 -40 66 91 vhcurveto
            146 63 vlineto
            148 75 81 149 hvcurveto
            107 128 54 -594 vlineto
            return
          </CharString>
          <CharString index="112">
            -25 hvcurveto
            -230 -292 -107 callgsubr
            return
          </CharString>
          <CharString index="113">
            rmoveto
            -134 -78 79 128 hvcurveto
            23 vlineto
            122 3 83 56 138 vvcurveto
            85 217 177 callgsubr
            return
          </CharString>
          <CharString index="114">
            hhcurveto
            9 9 0 1 8 hvcurveto
            -224 -219 rlineto
            72 hlineto
            258 261 17 13 13 17 11 20 rlinecurve
            return
          </CharString>
          <CharString index="115">
            rmoveto
            -92 callsubr
            414 322 callgsubr
            return
          </CharString>
          <CharString index="116">
            -52 -19 -56 -72 -69 -22 55 51 vhcurveto
            31 -62 vlineto
            -1 -10 0 -11 -10 vvcurveto
            -90 50 -71 105 111 43 76 89 vhcurveto
            233 return
          </CharString>
          <CharString index="117">
            -25 13 49 -69 119 hhcurveto
            119 56 68 83 62 -27 40 -36 24 hvcurveto
            return
          </CharString>
          <CharString index="118">
            105 72 141 133 -82 75 -121 return
          </CharString>
          <CharString index="119">
            -65 -57 24 68 78 75 16 62 hvcurveto
            175 180 return
          </CharString>
          <CharString index="120">
            99 callgsubr
            -844 -356 295 callsubr
            86 64 -62 -101 4 vhcurveto
            -8 -20 -4 -22 -25 vvcurveto
            -101 100 callgsubr
            -1615 -87 callsubr
            endchar
          </CharString>
          <CharString index="121">
            305 callgsubr
            -140 90 -99 129 -28 hvcurveto
            -156 -163 160 callgsubr
            -152 158 rlineto
            118 14 72 74 103 vvcurveto
            65 callgsubr
            vhcurveto
            137 callgsubr
            endchar
          </CharString>
          <CharString index="122">
            rmoveto
            -55 -47 -38 -62 -62 47 -38 55 57 45 38 62 62 -45 38 -57 hvcurveto
            -161 vmoveto
            -32 -26 24 37 38 26 23 32 33 26 -23 -38 -37 -26 -24 -33 hvcurveto
            return
          </CharString>
          <CharString index="123">
            -19 525 30 rmoveto
            -57 hlineto
            -48 -15 -51 -57 -92 hhcurveto
            -112 -58 80 97 97 60 82 106 71 46 -35 -35 22 hvcurveto
            -123 -122 rlineto
            61 hlineto
            121 120 rlineto
            65 -23 -70 57 -106 hhcurveto
            -19 -18 -2 -3 -17 hvcurveto
            -49 13 -36 31 50 191 callsubr
            -66 44 -40 48 -18 hvcurveto
            -74 -38 -42 -76 -88 vvcurveto
            -126 78 -105 150 129 73 78 79 16 vhcurveto
            return
          </CharString>
          <CharString index="124">
            rmoveto
            -264 13 callgsubr
            98 376 -110 vlineto
            -125 -75 -36 -113 vhcurveto
            257 -254 rmoveto
            -134 -78 77 123 hvcurveto
            3 0 4 4 vvcurveto
            124 3 82 54 138 vvcurveto
            119 216 -329 vlineto
            -117 -93 -79 -117 vhcurveto
            -401 27 rmoveto
            -93 callgsubr
            447 vlineto
            -154 94 -102 61 callsubr
            -225 93 callgsubr
            return
          </CharString>
          <CharString index="125">
            42 hlineto
            77 78 -26 -94 -65 -48 -51 -100 -118 -58 63 80 -1 hvcurveto
            -63 hlineto
            -114 1 89 -79 151 hhcurveto
            endchar
          </CharString>
          <CharString index="126">
            -11 callgsubr
            -16 -14 return
          </CharString>
          <CharString index="127">
            157 callsubr
            1 -97 64 -71 111 -20 -153 -160 143 callsubr
            160 rlineto
            99 17 50 63 81 vvcurveto
            127 -104 40 -100 vhcurveto
            214 callsubr
          </CharString>
          <CharString index="128">
            rmoveto
            135 59 83 84 hvcurveto
            -55 hlineto
            -56 -42 -62 -97 -97 -41 62 56 vhcurveto
            -56 hlineto
            -84 59 -83 135 vhcurveto
            endchar
          </CharString>
          <CharString index="129">
            73 338 106 -62 callgsubr
            148 -210 rmoveto
            69 hlineto
            -156 162 rlineto
            120 23 84 93 128 vvcurveto
            142 -102 95 -132 13 vhcurveto
            271 callsubr
            -735 -54 335 245 callgsubr
            -129 86 -93 120 -23 vhcurveto
            -154 -161 rlineto
            68 hlineto
            146 154 rlineto
            return
          </CharString>
          <CharString index="130">
            -32 callsubr
            16 18 -2 18 hhcurveto
            return
          </CharString>
          <CharString index="131">
            185 callsubr
            64 686 return
          </CharString>
          <CharString index="132">
            54 callgsubr
            63 return
          </CharString>
          <CharString index="133">
            rmoveto
            -107 -90 69 120 49 15 41 24 32 hvcurveto
            291 -261 rlineto
            -30 -31 -44 -20 -58 hhcurveto
            -2 383 rmoveto
            130 63 -100 -92 -39 -12 -43 -26 -35 hvcurveto
            -289 261 rlineto
            31 35 47 17 52 hhcurveto
            endchar
          </CharString>
          <CharString index="134">
            19 204 372 rmoveto
            -89 -23 -57 -66 -93 vvcurveto
            -129 100 -82 154 154 100 82 129 93 -57 66 -89 23 vhcurveto
            83 26 44 62 79 vvcurveto
            106 -82 82 -153 -153 -82 -82 -106 -80 43 -60 84 -27 vhcurveto
            108 23 rmoveto
            -100 -67 53 83 91 67 47 100 101 66 -48 -90 -83 -67 -53 -100 hvcurveto
            -54 vmoveto
            103 82 -46 -103 -95 -72 -59 -113 -114 -72 58 96 105 84 44 102 hvcurveto
            endchar
          </CharString>
          <CharString index="135">
            rmoveto
            132 62 81 86 hvcurveto
            -52 hlineto
            -57 -45 -62 -97 -97 -44 62 57 vhcurveto
            -53 hlineto
            -86 63 -81 131 vhcurveto
            1 161 rmoveto
            21 15 16 20 20 -15 16 -21 -21 -16 -16 -20 -20 16 -16 21 hvcurveto
            endchar
          </CharString>
          <CharString index="136">
            rmoveto
            98 500 -126 -32 vlineto
            -124 -100 -49 -96 -42 hvcurveto
            -278 hlineto
            46 34 30 58 81 vvcurveto
            44 278 callgsubr
            160 461 vlineto
            -4 -20 -2 -21 -23 vvcurveto
            138 callgsubr
            vhcurveto
            -61 -86 callgsubr
            return
          </CharString>
          <CharString index="137">
            108 82 70 111 64 -28 48 -38 29 hvcurveto
            return
          </CharString>
          <CharString index="138">
            -68 callgsubr
            endchar
          </CharString>
          <CharString index="139">
            rmoveto
            -587 vlineto
            -387 587 rlineto
            -70 -699 70 588 hlineto
            387 -588 rlineto
            70 699 hlineto
            return
          </CharString>
          <CharString index="140">
            87 callgsubr
            70 174 callgsubr
            return
          </CharString>
          <CharString index="141">
            vvcurveto
            -102 70 -68 105 110 63 70 132 vhcurveto
            85 176 vlineto
            -171 94 -111 169 113 219 callgsubr
            return
          </CharString>
          <CharString index="142">
            24 542 542 rmoveto
            105 -13 -69 84 -134 hhcurveto
            -183 -71 -143 -227 -206 48 -158 214 162 72 110 127 151 -88 91 -140 -95 -84 -47 -82 -27 hvcurveto
            238 -5 71 87 126 hhcurveto
            90 47 -49 -81 14 hvcurveto
            -150 -126 rmoveto
            111 62 -69 -116 -108 -66 -67 -103 -130 -58 88 101 118 95 53 89 hvcurveto
            endchar
          </CharString>
          <CharString index="143">
            -1 14 hhcurveto
            82 51 41 51 26 hvcurveto
            -419 -181 rmoveto
            -112 -68 70 104 hvcurveto
            106 vlineto
            1 2 0 1 hhcurveto
            96 83 45 152 hvcurveto
            155 416 -227 vlineto
            52 -26 -51 40 -82 hhcurveto
            -111 223 callsubr
            -85 -67 56 100 95 70 56 82 105 42 -82 -72 -70 -43 -83 -104 hvcurveto
            endchar
          </CharString>
          <CharString index="144">
            rmoveto
            -65 -139 rlineto
            49 hlineto
            79 139 rlineto
            79 hmoveto
            -69 -139 rlineto
            48 hlineto
            84 139 rlineto
            endchar
          </CharString>
          <CharString index="145">
            -20 62 534 rmoveto
            68 hlineto
            87 11 65 48 89 hhcurveto
            95 51 -53 -76 -88 -67 -45 -137 hvcurveto
            -23 -59 22 hlineto
            139 80 -46 -106 -79 -51 -63 -106 -106 -62 65 85 -12 hvcurveto
            -68 hlineto
            -136 14 99 -73 135 hhcurveto
            151 73 86 109 106 -64 62 -91 18 hvcurveto
            5 vlineto
            94 15 48 70 81 vvcurveto
            102 -74 81 -138 -134 -91 -74 -122 -10 vhcurveto
            endchar
          </CharString>
          <CharString index="146">
            -105 callsubr
            127 callgsubr
            return
          </CharString>
          <CharString index="147">
            rmoveto
            -74 callgsubr
            158 -262 rmoveto
            -36 callsubr
            return
          </CharString>
          <CharString index="148">
            19 callsubr
            vvcurveto
            return
          </CharString>
          <CharString index="149">
            -47 callsubr
            -633 -54 430 -27 callsubr
            -128 -97 -87 -134 -5 hvcurveto
            -1 vlineto
            -134 -17 -79 -57 -118 136 callgsubr
            -21 187 callgsubr
            return
          </CharString>
          <CharString index="150">
            142 104 callgsubr
            105 57 -66 -106 vhcurveto
            65 hlineto
            138 -76 89 -134 -97 -60 -51 -65 -27 vhcurveto
            236 394 54 -941 vlineto
            return
          </CharString>
          <CharString index="151">
            rmoveto
            -106 -48 73 117 hvcurveto
            234 824 48 callgsubr
            -111 -76 -71 -115 -15 hvcurveto
            -57 -18 -47 -43 -74 hhcurveto
            return
          </CharString>
          <CharString index="152">
            114 162 callgsubr
            return
          </CharString>
          <CharString index="153">
            -63 hlineto
            -110 -60 -64 -104 -117 -57 77 122 vhcurveto
            413 329 -124 vlineto
            -108 -39 -43 -97 8 vhcurveto
            -58 vlineto
            144 -13 54 65 148 vvcurveto
            125 119 54 return
          </CharString>
          <CharString index="154">
            -72 -35 -41 -70 -85 vvcurveto
            -121 78 -98 150 129 73 79 81 16 vhcurveto
            return
          </CharString>
          <CharString index="155">
            137 vvcurveto
            85 -32 callgsubr
            return
          </CharString>
          <CharString index="156">
            61 callsubr
            -237 return
          </CharString>
          <CharString index="157">
            -56 -92 -109 -87 -53 -111 return
          </CharString>
          <CharString index="158">
            -77 callgsubr
            17 18 -2 19 hhcurveto
            return
          </CharString>
          <CharString index="159">
            -26 callsubr
            105 30 -5 -97 117 hvcurveto
            return
          </CharString>
          <CharString index="160">
            262 rmoveto
            57 callsubr
            return
          </CharString>
          <CharString index="161">
            -101 55 -43 67 -10 vhcurveto
            -2 vlineto
            -74 -10 -66 -54 -90 vvcurveto
            return
          </CharString>
          <CharString index="162">
            15 hlineto
            105 79 -57 -103 -84 -54 -63 -91 -80 -75 48 95 -9 hvcurveto
            -60 -271 62 170 hlineto
            -49 26 63 -46 89 hhcurveto
            111 77 75 112 86 -45 58 -65 29 hvcurveto
            return
          </CharString>
          <CharString index="163">
            rmoveto
            -66 -49 45 71 71 52 45 74 hvcurveto
            102 -88 hlineto
            -91 -43 -53 -70 vhcurveto
            return
          </CharString>
          <CharString index="164">
            -95 callgsubr
            212 -262 rmoveto
            -99 callgsubr
            return
          </CharString>
          <CharString index="165">
            72 338 106 -62 callgsubr
            -54 vmoveto
            67 callgsubr
            -735 -54 335 245 callgsubr
            -149 114 -101 150 vhcurveto
            return
          </CharString>
          <CharString index="166">
            -117 -87 -70 -119 -112 84 -75 114 108 82 return
          </CharString>
          <CharString index="167">
            68 -95 135 103 callgsubr
            vhcurveto
            -300 return
          </CharString>
          <CharString index="168">
            168 45 callsubr
            vhcurveto
            return
          </CharString>
          <CharString index="169">
            306 262 -91 callgsubr
            -335 424 rmoveto
            233 callgsubr
            hlineto
            -145 68 108 callgsubr
            251 259 17 14 14 18 11 20 rlinecurve
            -302 63 324 vlineto
            201 callgsubr
            return
          </CharString>
          <CharString index="170">
            hlineto
            7 23 4 24 25 vvcurveto
            100 -55 65 -86 -83 -36 -58 -52 -12 vhcurveto
            -2 hlineto
            52 -11 -35 58 -78 hhcurveto
            -88 -59 -63 -102 -100 57 -74 112 7 10 0 1 7 hvcurveto
            45 vlineto
            -1 -5 -10 -1 -6 hhcurveto
            -79 -42 54 75 70 35 51 68 65 32 -58 -83 hvcurveto
            -11 44 11 vlineto
            83 33 58 68 67 30 -53 -67 return
          </CharString>
          <CharString index="171">
            75 60 -64 hlineto
            -63 -23 21 67 hvcurveto
            339 150 59 -150 137 -71 -137 350 callsubr
          </CharString>
          <CharString index="172">
            402 1 callsubr
            137 194 rmoveto
            -9 0 -8 1 -8 vhcurveto
            -297 259 rlineto
            296 hlineto
            227 -424 rmoveto
            -74 callgsubr
            return
          </CharString>
          <CharString index="173">
            52 callsubr
            -143 -54 141 -686 hlineto
            return
          </CharString>
          <CharString index="174">
            -5 callsubr
            60 29 return
          </CharString>
          <CharString index="175">
            140 -84 68 -96 348 callgsubr
            vhcurveto
            54 hlineto
            -12 34 -6 33 29 vvcurveto
            93 63 33 53 61 62 -51 -106 -165 -132 -99 -181 -154 -102 58 111 75 50 63 121 vhcurveto
            21 53 -22 hlineto
            -104 284 callgsubr
            112 679 54 -873 vlineto
            endchar
          </CharString>
          <CharString index="176">
            230 120 callsubr
            692 -182 -275 -99 hlineto
            239 callsubr
            116 68 174 callgsubr
            46 215 -123 vlineto
            -353 -358 rlineto
            72 hlineto
            282 292 rlineto
            -262 60 -47 callsubr
            -893 vlineto
            return
          </CharString>
          <CharString index="177">
            rmoveto
            -129 -74 76 123 -10 hvcurveto
            -10 -1 -1 10 -2 9 -3 9 rlinecurve
            6 hlineto
            134 83 64 335 callgsubr
            -94 -78 -116 vhcurveto
            -466 356 -75 callsubr
            endchar
          </CharString>
          <CharString index="178">
            53 hlineto
            38 6 25 28 36 59 35 -67 73 hhcurveto
            68 42 43 86 14 hvcurveto
            -53 hlineto
            -39 -5 -25 -27 -36 -56 -38 67 -74 hhcurveto
            -66 -43 -43 -86 -15 hvcurveto
            return
          </CharString>
          <CharString index="179">
            rmoveto
            87 callsubr
            return
          </CharString>
          <CharString index="180">
            -163 207 callsubr
            return
          </CharString>
          <CharString index="181">
            11 65 365 rmoveto
            -209 46 -158 197 196 47 158 209 205 -47 157 -196 -197 -46 -157 -205 vhcurveto
            417 hmoveto
            -168 -22 -135 -152 -152 -22 135 168 162 22 137 152 152 22 -137 -162 vhcurveto
            endchar
          </CharString>
          <CharString index="182">
            250 callgsubr
            hlineto
            105 callsubr
          </CharString>
          <CharString index="183">
            rmoveto
            -197 235 197 hlineto
            return
          </CharString>
          <CharString index="184">
            128 callgsubr
            -135 114 -74 170 -9 vhcurveto
            -149 -156 160 callgsubr
            -156 162 rlineto
            170 28 113 112 170 vvcurveto
            return
          </CharString>
          <CharString index="185">
            hlineto
            -89 callsubr
            return
          </CharString>
          <CharString index="186">
            122 553 hmoveto
            62 -96 callgsubr
            -785 -54 325 -235 hlineto
            9 callsubr
            192 -351 vlineto
            -361 -355 rlineto
            75 hlineto
            287 288 rlineto
            return
          </CharString>
          <CharString index="187">
            48 274 68 callgsubr
            return
          </CharString>
          <CharString index="188">
            -61 310 -30 rmoveto
            72 hlineto
            309 321 rlineto
            67 vlineto
            -720 328 rmoveto
            720 54 -720 hlineto
            293 -531 rmoveto
            116 68 81 115 hvcurveto
            43 243 56 -303 -99 vlineto
            239 callsubr
            vhcurveto
            return
          </CharString>
          <CharString index="189">
            hhcurveto
            -75 callgsubr
            endchar
          </CharString>
          <CharString index="190">
            273 callsubr
            vlineto
            -12 callsubr
            endchar
          </CharString>
          <CharString index="191">
            44 582 356 rmoveto
            25 19 19 25 24 -19 19 -25 -25 -19 -19 -24 -25 19 -19 25 hvcurveto
            return
          </CharString>
          <CharString index="192">
            rmoveto
            93 62 61 93 94 62 -61 -93 -93 -62 -61 -94 -93 -62 61 93 vhcurveto
            return
          </CharString>
          <CharString index="193">
            rmoveto
            25 21 21 25 320 callsubr
            return
          </CharString>
          <CharString index="194">
            108 -31 callgsubr
            return
          </CharString>
          <CharString index="195">
            -26 callgsubr
            -100 -67 -68 -94 20 callgsubr
            -115 return
          </CharString>
          <CharString index="196">
            -75 vlineto
            -114 -75 -30 -113 vhcurveto
            -333 hlineto
            -57 callsubr
            -75 150 callsubr
            29 hvcurveto
            83 callgsubr
          </CharString>
          <CharString index="197">
            -33 51 5 rmoveto
            477 59 -370 hlineto
            141 104 207 169 183 vvcurveto
            138 -92 71 -125 -132 -92 -83 -151 -8 vhcurveto
            68 hlineto
            100 6 52 74 106 hhcurveto
            111 36 -69 -83 -153 -179 -155 -206 -154 hvcurveto
            endchar
          </CharString>
          <CharString index="198">
            rmoveto
            137 77 41 91 vhcurveto
            19 73 hlineto
            -94 -63 -40 -67 -30 hvcurveto
            97 -70 -546 70 vlineto
            return
          </CharString>
          <CharString index="199">
            149 callsubr
            vlineto
            endchar
          </CharString>
          <CharString index="200">
            123 callgsubr
            hvcurveto
            return
          </CharString>
          <CharString index="201">
            -69 callgsubr
            -114 1 89 -79 151 hhcurveto
            -54 callsubr
            return
          </CharString>
          <CharString index="202">
            -31 callgsubr
            175 -398 316 callsubr
            -289 -175 91 vlineto
            123 -48 84 -116 -21 return
          </CharString>
          <CharString index="203">
            82 79 57 -55 260 callsubr
            return
          </CharString>
          <CharString index="204">
            106 callsubr
            endchar
          </CharString>
          <CharString index="205">
            322 callsubr
            219 callsubr
            hvcurveto
            51 hlineto
            76 78 -26 -94 -62 -43 -54 -92 -104 -59 62 81 -8 hvcurveto
            -57 -255 60 return
          </CharString>
          <CharString index="206">
            -104 callsubr
            330 vlineto
            return
          </CharString>
          <CharString index="207">
            216 12 callgsubr
            return
          </CharString>
          <CharString index="208">
            216 81 callgsubr
            return
          </CharString>
          <CharString index="209">
            74 callgsubr
            -151 71 return
          </CharString>
          <CharString index="210">
            180 277 449 rmoveto
            -82 39 -36 47 3 69 rrcurveto
            58 2 51 52 73 hhcurveto
            81 49 -56 -60 -67 -45 -40 -57 -44 hvcurveto
            -13 -10 rlineto
            311 -437 rmoveto
            59 -47 callsubr
            -202 -449 hlineto
            -258 122 rlineto
            0 vlineto
            return
          </CharString>
          <CharString index="211">
            -61 264 139 rmoveto
            116 70 297 callsubr
            241 55 -303 209 callsubr
            vhcurveto
            -293 547 rmoveto
            720 54 -720 hlineto
            return
          </CharString>
          <CharString index="212">
            111 callsubr
            endchar
          </CharString>
          <CharString index="213">
            -54 188 callgsubr
            return
          </CharString>
          <CharString index="214">
            137 128 callsubr
            return
          </CharString>
          <CharString index="215">
            302 callsubr
            -716 -54 367 -235 -103 hlineto
            -48 callsubr
            210 vlineto
            334 callgsubr
            return
          </CharString>
          <CharString index="216">
            -74 rmoveto
            -93 callgsubr
            478 vlineto
            return
          </CharString>
          <CharString index="217">
            123 -298 hlineto
            -14 callgsubr
            return
          </CharString>
          <CharString index="218">
            -104 callsubr
            vlineto
            return
          </CharString>
          <CharString index="219">
            rmoveto
            -134 -79 73 callgsubr
            return
          </CharString>
          <CharString index="220">
            -158 56 567 -55 vlineto
            -93 -83 -40 -68 -81 -70 54 82 96 71 47 113 vhcurveto
            149 172 153 54 -662 hlineto
            328 -833 rmoveto
            -84 -1 -63 54 90 vvcurveto
            34 10 28 19 22 vhcurveto
            242 -161 return
          </CharString>
          <CharString index="221">
            rmoveto
            82 51 41 52 26 hvcurveto
            -236 -36 callsubr
            -984 -54 284 callsubr
            vlineto
            -127 -69 -29 -76 vhcurveto
            -38 -162 hlineto
            -149 96 -88 145 113 74 67 82 35 vhcurveto
            -3 13 14 -1 14 hhcurveto
            return
          </CharString>
          <CharString index="222">
            -47 callsubr
            -203 -514 hlineto
            -261 144 3 3 rlineto
            80 61 160 callsubr
            -91 57 -64 97 -54 vhcurveto
            -210 -162 rlineto
            -8 73 vlineto
            186 143 return
          </CharString>
          <CharString index="223">
            rmoveto
            57 hlineto
            40 5 22 23 38 hhcurveto
            33 27 -21 -43 -48 -32 -33 -38 -33 hvcurveto
            -111 -95 rlineto
            -40 247 47 -181 vlineto
            83 64 rlineto
            59 47 33 37 56 vvcurveto
            60 -46 46 -72 -79 -41 -48 -59 -4 vhcurveto
            endchar
          </CharString>
          <CharString index="224">
            hlineto
            129 callgsubr
            return
          </CharString>
          <CharString index="225">
            14 -62 -11 vlineto
            -86 -49 -59 -80 -88 -42 66 91 vhcurveto
            144 return
          </CharString>
          <CharString index="226">
            21 -25 -26 -20 -21 -25 return
          </CharString>
          <CharString index="227">
            -29 686 rmoveto
            return
          </CharString>
          <CharString index="228">
            581 225 166 -94 callsubr
            788 520 rmoveto
            -228 vlineto
            182 callgsubr
            -95 -80 -46 -79 -39 hvcurveto
            -199 235 hlineto
            return
          </CharString>
          <CharString index="229">
            2 callsubr
            vlineto
            endchar
          </CharString>
          <CharString index="230">
            -54 156 callgsubr
            return
          </CharString>
          <CharString index="231">
            -54 533 -218 hlineto
            65 -35 -64 42 -92 hhcurveto
            -140 -99 -100 -154 hvcurveto
            64 hlineto
            122 80 77 112 96 65 -63 -84 13 vhcurveto
            -375 -368 rlineto
            -5 79 vlineto
            296 305 rlineto
            endchar
          </CharString>
          <CharString index="232">
            59 callsubr
            71 111 return
          </CharString>
          <CharString index="233">
            -54 438 151 callsubr
            return
          </CharString>
          <CharString index="234">
            rmoveto
            -418 -242 vlineto
            607 422 rmoveto
            56 -406 vlineto
            -406 -700 rlineto
            77 hlineto
            96 166 rlineto
            274 -166 365 56 -295 268 265 56 -265 264 hlineto
            endchar
          </CharString>
          <CharString index="235">
            vvcurveto
            85 100 callsubr
            return
          </CharString>
          <CharString index="236">
            -605 -167 737 rmoveto
            55 hlineto
            284 -145 -41 12 -125 183 callsubr
            return
          </CharString>
          <CharString index="237">
            125 callsubr
            64 -29 49 -37 28 hvcurveto
            return
          </CharString>
          <CharString index="238">
            -75 hlineto
            41 callsubr
            return
          </CharString>
          <CharString index="239">
            vlineto
            155 callgsubr
            return
          </CharString>
          <CharString index="240">
            hhcurveto
            83 59 36 58 31 hvcurveto
            -301 return
          </CharString>
          <CharString index="241">
            -8 28 28 vvcurveto
            70 36 37 55 49 34 -35 -51 -3 vhcurveto
            55 hlineto
            81 6 -51 56 -78 hhcurveto
            -94 -38 -71 -71 -6 0 -6 1 -6 hvcurveto
            150 -99 -52 11 -109 271 callgsubr
            return
          </CharString>
          <CharString index="242">
            -217 317 258 49 callgsubr
            321 -271 rlineto
            -49 -11 -53 -55 -91 hhcurveto
            -346 428 rmoveto
            336 callgsubr
            75 -98 151 return
          </CharString>
          <CharString index="243">
            -47 145 callsubr
            -69 -84 vvcurveto
            return
          </CharString>
          <CharString index="244">
            vvcurveto
            -113 84 -75 150 callsubr
            29 vhcurveto
            83 callgsubr
          </CharString>
          <CharString index="245">
            -75 vlineto
            -121 -67 -40 -102 -5 vhcurveto
            39 -25 -52 38 return
          </CharString>
          <CharString index="246">
            -148 113 -102 153 return
          </CharString>
          <CharString index="247">
            120 callsubr
            443 -111 hlineto
            -73 -44 -60 -96 vhcurveto
            -35 -56 42 hlineto
            121 45 -89 -75 -94 -62 -68 -97 -98 -75 71 93 hvcurveto
            -61 hlineto
            -129 99 -92 138 136 return
          </CharString>
          <CharString index="248">
            -76 46 -25 vlineto
            -34 -12 -18 -34 vhcurveto
            -35 vlineto
            58 33 29 73 24 -3 29 -7 33 hvcurveto
            endchar
          </CharString>
          <CharString index="249">
            13 7 vvcurveto
            91 -60 65 -102 -21 187 callgsubr
            -712 -54 return
          </CharString>
          <CharString index="250">
            rcurveline
            1 callgsubr
            -153 return
          </CharString>
          <CharString index="251">
            257 185 rmoveto
            -67 -49 42 65 67 53 42 73 hvcurveto
            103 -72 262 callgsubr
            return
          </CharString>
          <CharString index="252">
            14 -35 31 49 191 callsubr
            298 callsubr
            hvcurveto
            -72 -35 -41 return
          </CharString>
          <CharString index="253">
            -19 -26 -289 261 rcurveline
            173 callgsubr
            return
          </CharString>
          <CharString index="254">
            -44 16 -50 hhcurveto
            -94 -54 -48 -63 5 callsubr
            return
          </CharString>
          <CharString index="255">
            -54 134 -84 vlineto
            76 callgsubr
            return
          </CharString>
          <CharString index="256">
            110 -31 callgsubr
            197 -398 64 686 return
          </CharString>
          <CharString index="257">
            164 callsubr
            -38 return
          </CharString>
          <CharString index="258">
            307 callsubr
            hlineto
            -93 -70 -39 -87 return
          </CharString>
          <CharString index="259">
            157 104 105 154 return
          </CharString>
          <CharString index="260">
            -73 86 129 3 342 callsubr
            28 hhcurveto
            139 112 56 141 103 -71 77 -110 -20 -20 -3 -6 -18 hvcurveto
            -922 -54 932 hlineto
            5 14 return
          </CharString>
          <CharString index="261">
            171 callsubr
            106 return
          </CharString>
          <CharString index="262">
            -117 -87 -71 return
          </CharString>
          <CharString index="263">
            -58 hlineto
            -113 -93 -76 -115 -131 -83 82 140 vhcurveto
            3 0 4 4 vvcurveto
            128 294 callgsubr
            274 54 -644 vlineto
            endchar
          </CharString>
          <CharString index="264">
            rmoveto
            432 276 callsubr
            -69 callgsubr
            return
          </CharString>
          <CharString index="265">
            -55 hlineto
            -116 -90 -83 -122 -99 -75 43 92 69 47 55 114 vhcurveto
            348 callsubr
            424 54 -622 vlineto
            endchar
          </CharString>
          <CharString index="266">
            -49 45 70 73 53 228 callsubr
            return
          </CharString>
          <CharString index="267">
            42 57 86 vvcurveto
            92 -71 80 -117 -116 -69 -81 -96 return
          </CharString>
          <CharString index="268">
            206 callsubr
            89 65 -66 -106 vhcurveto
            0 vlineto
            -143 return
          </CharString>
          <CharString index="269">
            -1 120 callsubr
            445 -118 -89 hlineto
            -145 -98 -62 -130 -83 51 -60 67 -25 hvcurveto
            -61 -24 -46 -57 -78 vvcurveto
            -113 80 -75 111 return
          </CharString>
          <CharString index="270">
            -39 rmoveto
            -101 callgsubr
            return
          </CharString>
          <CharString index="271">
            259 callgsubr
            64 -29 49 return
          </CharString>
          <CharString index="272">
            64 hlineto
            119 83 67 103 93 69 -52 -69 28 vhcurveto
            -373 -358 rlineto
            -4 82 vlineto
            293 291 rlineto
            -291 62 -96 callgsubr
            return
          </CharString>
          <CharString index="273">
            hhcurveto
            -9 277 rmoveto
            77 5 55 32 26 47 rrcurveto
            -211 vlineto
            -20 -4 -20 -8 -20 vhcurveto
            -235 156 23 18 31 11 35 2 rlinecurve
            endchar
          </CharString>
          <CharString index="274">
            -36 callgsubr
            endchar
          </CharString>
          <CharString index="275">
            70 245 hlineto
            225 -245 rlineto
            95 hlineto
            -261 274 259 272 rlineto
            -98 hlineto
            -220 -244 rlineto
            438 -70 vlineto
            endchar
          </CharString>
          <CharString index="276">
            -54 894 -233 vlineto
            63 -28 -59 50 -98 hhcurveto
            -65 return
          </CharString>
          <CharString index="277">
            hhcurveto
            249 callsubr
            hvcurveto
            -221 return
          </CharString>
          <CharString index="278">
            -28 -29 -16 -39 -49 vvcurveto
            -101 70 -69 return
          </CharString>
          <CharString index="279">
            hmoveto
            -96 callgsubr
            return
          </CharString>
          <CharString index="280">
            -61 -86 callgsubr
            -709 hlineto
            endchar
          </CharString>
          <CharString index="281">
            10 callgsubr
            hlineto
            return
          </CharString>
          <CharString index="282">
            38 hlineto
            79 30 34 93 vhcurveto
            60 vlineto
            -138 -55 -56 -117 hvcurveto
            -38 return
          </CharString>
          <CharString index="283">
            206 callgsubr
            140 54 return
          </CharString>
          <CharString index="284">
            -699 321 57 -251 642 vlineto
            return
          </CharString>
          <CharString index="285">
            hhcurveto
            -151 -107 -78 -172 243 callgsubr
            76 62 120 return
          </CharString>
          <CharString index="286">
            -173 120 callsubr
            134 -84 hlineto
            234 callsubr
            return
          </CharString>
          <CharString index="287">
            -68 -26 -47 -63 -85 vvcurveto
            -115 81 -76 114 84 56 40 53 28 vhcurveto
            -155 59 456 vlineto
            50 39 25 58 71 vvcurveto
            return
          </CharString>
          <CharString index="288">
            547 -55 vlineto
            -93 -84 -40 -67 -93 -59 54 82 96 71 47 114 vhcurveto
            148 172 153 54 -688 hlineto
            endchar
          </CharString>
          <CharString index="289">
            114 74 55 64 34 return
          </CharString>
          <CharString index="290">
            -26 callsubr
            106 30 -5 -100 120 hvcurveto
            return
          </CharString>
          <CharString index="291">
            -79 -36 -29 -41 -45 vvcurveto
            -67 56 -25 57 24 26 5 8 22 vhcurveto
            return
          </CharString>
          <CharString index="292">
            30 callsubr
            223 callgsubr
            return
          </CharString>
          <CharString index="293">
            99 175 -99 175 rlineto
            -71 hlineto
            102 -175 -102 -175 rlineto
            return
          </CharString>
          <CharString index="294">
            vvcurveto
            -115 96 -57 129 126 77 54 96 34 vhcurveto
            300 callsubr
            return
          </CharString>
          <CharString index="295">
            253 callsubr
            131 103 82 48 79 40 vhcurveto
            -236 return
          </CharString>
          <CharString index="296">
            71 111 64 -29 49 -38 29 return
          </CharString>
          <CharString index="297">
            218 153 119 198 return
          </CharString>
          <CharString index="298">
            vvcurveto
            66 56 23 63 vhcurveto
            186 177 144 54 -644 126 callsubr
            return
          </CharString>
          <CharString index="299">
            hhcurveto
            163 167 rmoveto
            -5 0 -5 -4 vvcurveto
            -328 275 rlineto
            328 hlineto
            -508 hmoveto
            319 callsubr
            return
          </CharString>
          <CharString index="300">
            321 156 139 callgsubr
            return
          </CharString>
          <CharString index="301">
            vvcurveto
            61 callgsubr
            vhcurveto
            -206 return
          </CharString>
          <CharString index="302">
            168 115 74 55 64 33 vhcurveto
            -238 return
          </CharString>
          <CharString index="303">
            hhcurveto
            -126 -84 -77 -126 -86 40 return
          </CharString>
          <CharString index="304">
            182 callsubr
            vhcurveto
            -238 return
          </CharString>
          <CharString index="305">
            -167 -122 -88 -173 return
          </CharString>
          <CharString index="306">
            -167 -129 -89 -186 return
          </CharString>
          <CharString index="307">
            -94 232 callsubr
            return
          </CharString>
          <CharString index="308">
            rmoveto
            -80 -60 49 83 76 52 49 72 5 hvcurveto
            74 5 54 30 27 44 rrcurveto
            -206 vlineto
            -59 -43 -76 -96 vhcurveto
            return
          </CharString>
          <CharString index="309">
            hlineto
            86 33 46 67 58 37 -44 -61 -1 vhcurveto
            56 hlineto
            94 2 -56 65 -97 hhcurveto
            -110 -49 -75 -111 hvcurveto
            return
          </CharString>
          <CharString index="310">
            562 -55 vlineto
            -93 -84 -40 -67 -93 -58 54 82 96 70 47 114 vhcurveto
            149 172 152 54 return
          </CharString>
          <CharString index="311">
            -93 -70 -39 -87 298 callsubr
            hvcurveto
            -72 -35 -41 -70 -86 vvcurveto
            -120 78 -98 150 vhcurveto
            endchar
          </CharString>
          <CharString index="312">
            rmoveto
            195 -641 70 641 194 58 -459 hlineto
            return
          </CharString>
          <CharString index="313">
            85 40 96 117 return
          </CharString>
          <CharString index="314">
            103 -85 157 return
          </CharString>
          <CharString index="315">
            rmoveto
            98 214 -271 -290 vlineto
            285 callgsubr
            return
          </CharString>
          <CharString index="316">
            -167 vlineto
            -73 callsubr
            return
          </CharString>
          <CharString index="317">
            273 callsubr
            hlineto
            -12 callsubr
            endchar
          </CharString>
          <CharString index="318">
            hhcurveto
            140 111 56 return
          </CharString>
          <CharString index="319">
            25 120 callsubr
            472 -118 -90 hlineto
            -145 -97 -64 -132 -95 55 -71 96 -18 hvcurveto
            return
          </CharString>
          <CharString index="320">
            337 callsubr
            -14 -20 -33 vhcurveto
            -35 vlineto
            57 306 callsubr
            -3 24 -5 24 hvcurveto
            return
          </CharString>
          <CharString index="321">
            -45 hlineto
            -62 -57 24 69 77 73 16 62 hvcurveto
            174 180 213 54 -707 hlineto
            endchar
          </CharString>
          <CharString index="322">
            333 callgsubr
            -146 return
          </CharString>
          <CharString index="323">
            424 -126 -32 257 callsubr
            return
          </CharString>
          <CharString index="324">
            172 callgsubr
            -203 return
          </CharString>
          <CharString index="325">
            107 75 66 81 22 hvcurveto
            3 hlineto
            return
          </CharString>
          <CharString index="326">
            -98 80 -40 89 -2 return
          </CharString>
          <CharString index="327">
            rmoveto
            -105 -80 68 115 111 83 68 102 128 54 -95 -87 -81 -54 -99 -128 hvcurveto
            return
          </CharString>
          <CharString index="328">
            225 193 rmoveto
            -67 -48 45 70 71 52 45 73 hvcurveto
            103 -87 262 callgsubr
            return
          </CharString>
          <CharString index="329">
            262 rmoveto
            -74 callgsubr
            return
          </CharString>
          <CharString index="330">
            -87 -79 -122 -89 41 -66 64 -31 hvcurveto
            -59 -26 -54 -51 -87 hhcurveto
            272 140 rmoveto
            return
          </CharString>
          <CharString index="331" raw="1">
            f7120af7 be0a1f43 68620b 
          </CharString>
          <CharString index="332">
            -590 rmoveto
            244 -73 vlineto
            -163 -248 rlineto
            -35 179 -71 57 71 50 39 vlineto
            return
          </CharString>
          <CharString index="333">
            -72 callgsubr
            153 -444 return
          </CharString>
          <CharString index="334">
            rmoveto
            -84 -56 55 340 callgsubr
            -56 return
          </CharString>
          <CharString index="335">
            44 318 callsubr
            return
          </CharString>
          <CharString index="336">
            427 588 rmoveto
            98 return
          </CharString>
          <CharString index="337">
            -184 -272 -167 return
          </CharString>
          <CharString index="338">
            -220 63 686 vlineto
            return
          </CharString>
          <CharString index="339">
            -54 -49 -62 -25 hvcurveto
            return
          </CharString>
          <CharString index="340">
            90 73 -66 -106 return
          </CharString>
          <CharString index="341">
            253 callsubr
            144 return
          </CharString>
          <CharString index="342">
            hlineto
            -102 -74 -84 -107 -1 vhcurveto
            -91 -78 56 102 207 callgsubr
            33 51 -361 return
          </CharString>
          <CharString index="343">
            hlineto
            241 callsubr
            return
          </CharString>
          <CharString index="344">
            96 -92 134 return
          </CharString>
          <CharString index="345">
            140 173 return
          </CharString>
          <CharString index="346">
            -83 -47 -56 -76 -75 -45 56 83 vhcurveto
            99 -64 -99 vlineto
            -115 66 -81 117 return
          </CharString>
          <CharString index="347">
            -53 -25 -41 -55 -75 vvcurveto
            -107 76 -71 108 69 56 31 54 28 vhcurveto
            -152 return
          </CharString>
          <CharString index="348">
            -4 -2 176 callgsubr
            return
          </CharString>
          <CharString index="349">
            -144 -104 -58 -151 -124 90 -80 128 126 89 77 121 hvcurveto
            return
          </CharString>
          <CharString index="350">
            47 rmoveto
            -36 callgsubr
            return
          </CharString>
          <CharString index="351">
            vvcurveto
            126 callgsubr
            -221 61 vlineto
            endchar
          </CharString>
          <CharString index="352">
            274 callsubr
            -145 -121 -76 -158 return
          </CharString>
          <CharString index="353">
            120 callgsubr
            122 hlineto
            -14 -30 -7 return
          </CharString>
          <CharString index="354">
            315 callsubr
            -47 -57 -76 return
          </CharString>
          <CharString index="355">
            -108 -63 -70 -116 vhcurveto
            return
          </CharString>
          <CharString index="356">
            100 67 50 67 31 return
          </CharString>
          <CharString index="357">
            61 330 hlineto
            return
          </CharString>
          <CharString index="358">
            -75 vlineto
            19 callsubr
            -7 0 return
          </CharString>
          <CharString index="359">
            -45 hlineto
            -62 -57 24 69 77 73 16 62 hvcurveto
            168 180 146 54 return
          </CharString>
          <CharString index="360">
            76 callgsubr
            95 -62 return
          </CharString>
          <CharString index="361">
            hhcurveto
            -49 -42 -7 -14 -36 hvcurveto
            -43 16 -29 28 44 296 callgsubr
            return
          </CharString>
          <CharString index="362">
            -27 callsubr
            -70 -60 -26 -45 -42 hvcurveto
            -165 hlineto
            return
          </CharString>
          <CharString index="363">
            318 callgsubr
            vhcurveto
            endchar
          </CharString>
          <CharString index="364">
            hlineto
            198 callsubr
            return
          </CharString>
          <CharString index="365">
            -686 -36 callsubr
            return
          </CharString>
          <CharString index="366">
            -94 -54 -49 -63 -25 hvcurveto
            232 return
          </CharString>
          <CharString index="367">
            -78 -79 321 callsubr
            return
          </CharString>
          <CharString index="368">
            -19 -28 -11 -36 -42 vvcurveto
            return
          </CharString>
          <CharString index="369">
            63 329 callsubr
          </CharString>
          <CharString index="370">
            5 15 16 2 17 hhcurveto
            344 callsubr
            hvcurveto
            return
          </CharString>
          <CharString index="371">
            -79 -65 40 86 67 45 52 95 hvcurveto
            7 51 -7 hlineto
            -95 -51 46 71 return
          </CharString>
          <CharString index="372">
            -44 -76 -8 2 -11 1 -8 vhcurveto
            46 hlineto
            -2 5 -1 8 6 vvcurveto
            51 return
          </CharString>
          <CharString index="373">
            506 712 hmoveto
            323 callsubr
            return
          </CharString>
          <CharString index="374">
            rmoveto
            52 -23 vlineto
            308 callsubr
            return
          </CharString>
          <CharString index="375">
            -164 46 -166 rmoveto
            69 hlineto
            276 1106 rlineto
            -71 hlineto
            endchar
          </CharString>
          <CharString index="376">
            317 callsubr
            -3 24 return
          </CharString>
          <CharString index="377">
            -88 -216 rlineto
            81 hlineto
            58 216 rlineto
            return
          </CharString>
          <CharString index="378">
            134 337 54 return
          </CharString>
          <CharString index="379">
            -187 -155 vlineto
            return
          </CharString>
          <CharString index="380">
            -54 233 callgsubr
            return
          </CharString>
          <CharString index="381">
            -118 -82 hlineto
            return
          </CharString>
          <CharString index="382">
            -17 1 4 -14 return
          </CharString>
          <CharString index="383">
            -133 -131 return
          </CharString>
          <CharString index="384">
            vlineto
            59 callsubr
            return
          </CharString>
          <CharString index="385">
            rmoveto
            291 callgsubr
            -132 101 -71 124 return
          </CharString>
          <CharString index="386">
            515 hmoveto
            62 330 hlineto
            84 46 97 117 233 callsubr
            return
          </CharString>
          <CharString index="387">
            303 callsubr
            319 return
          </CharString>
          <CharString index="388">
            vlineto
            96 83 45 152 hvcurveto
            140 417 -229 vlineto
            53 -25 return
          </CharString>
          <CharString index="389">
            338 callsubr
            85 47 96 117 233 callsubr
            return
          </CharString>
          <CharString index="390">
            302 callgsubr
            endchar
          </CharString>
          <CharString index="391">
            300 -133 return
          </CharString>
          <CharString index="392">
            -33 -32 -20 -46 -56 vvcurveto
            -113 83 -74 114 109 81 return
          </CharString>
          <CharString index="393">
            -28 callgsubr
            -205 -372 hlineto
            -131 -101 -79 return
          </CharString>
          <CharString index="394">
            324 callgsubr
            141 54 return
          </CharString>
          <CharString index="395">
            -313 130 hmoveto
            71 717 -170 -63 99 hlineto
            endchar
          </CharString>
          <CharString index="396">
            237 callsubr
            299 callsubr
            return
          </CharString>
          <CharString index="397">
            54 -96 -86 hvcurveto
            -1 vlineto
            -79 -54 -100 return
          </CharString>
          <CharString index="398">
            -188 7 rlineto
            -57 vlineto
            188 7 return
          </CharString>
          <CharString index="399">
            238 callsubr
            152 54 return
          </CharString>
          <CharString index="400">
            -271 -81 -112 -137 return
          </CharString>
          <CharString index="401">
            143 91 79 115 return
          </CharString>
          <CharString index="402">
            rmoveto
            206 callsubr
            return
          </CharString>
          <CharString index="403">
            -151 73 -98 145 return
          </CharString>
          <CharString index="404">
            81 115 hvcurveto
            112 return
          </CharString>
          <CharString index="405">
            -65 42 -39 47 -19 return
          </CharString>
          <CharString index="406">
            101 66 50 66 31 return
          </CharString>
          <CharString index="407">
            -93 31 82 -56 104 170 callsubr
            return
          </CharString>
          <CharString index="408">
            190 callsubr
            125 -67 68 -83 13 return
          </CharString>
          <CharString index="409">
            218 callgsubr
            -22 187 callgsubr
            return
          </CharString>
          <CharString index="410">
            316 262 rmoveto
            -113 -50 73 117 hvcurveto
            234 return
          </CharString>
          <CharString index="411">
            rmoveto
            310 callsubr
            return
          </CharString>
          <CharString index="412">
            rmoveto
            14 -62 -11 vlineto
            -86 -48 -59 -81 -88 -41 66 91 vhcurveto
            return
          </CharString>
          <CharString index="413">
            34 29 78 19 return
          </CharString>
          <CharString index="414">
            -130 -143 return
          </CharString>
          <CharString index="415">
            -131 -72 72 123 133 120 callgsubr
            return
          </CharString>
          <CharString index="416">
            rmoveto
            -84 -56 55 77 81 58 54 82 79 57 -55 -78 return
          </CharString>
          <CharString index="417">
            451 245 callsubr
            return
          </CharString>
          <CharString index="418">
            307 331 callsubr
            return
          </CharString>
          <CharString index="419">
            70 111 64 -28 48 -38 29 hvcurveto
            218 -452 return
          </CharString>
          <CharString index="420">
            -97 vvcurveto
            -158 99 -122 164 -3 vhcurveto
            endchar
          </CharString>
          <CharString index="421">
            -9 -38 hhcurveto
            -58 -51 21 59 63 return
          </CharString>
          <CharString index="422">
            230 callsubr
            vlineto
            -82 return
          </CharString>
          <CharString index="423">
            93 callgsubr
            -204 return
          </CharString>
          <CharString index="424">
            vhcurveto
            -35 vlineto
            56 306 callsubr
            return
          </CharString>
          <CharString index="425">
            327 callsubr
            -42 -53 return
          </CharString>
          <CharString index="426">
            156 callgsubr
            hlineto
            return
          </CharString>
          <CharString index="427">
            25 -21 21 -25 return
          </CharString>
          <CharString index="428">
            -57 -55 -79 hvcurveto
            return
          </CharString>
          <CharString index="429">
            -90 -93 -33 -107 return
          </CharString>
          <CharString index="430">
            686 224 258 callsubr
            return
          </CharString>
          <CharString index="431">
            rlinecurve
            -169 -62 rmoveto
            -95 -73 65 112 108 return
          </CharString>
          <CharString index="432">
            152 111 102 145 88 -40 71 -66 40 return
          </CharString>
          <CharString index="433">
            -145 109 -90 134 12 12 1 1 11 return
          </CharString>
          <CharString index="434">
            74 hvcurveto
            101 -88 hlineto
            -91 return
          </CharString>
          <CharString index="435">
            20 -20 27 hvcurveto
            return
          </CharString>
          <CharString index="436">
            686 vlineto
            endchar
          </CharString>
          <CharString index="437">
            -179 3 95 -116 165 hhcurveto
            113 return
          </CharString>
          <CharString index="438">
            262 rmoveto
            -106 -48 73 117 hvcurveto
            234 return
          </CharString>
          <CharString index="439">
            -141 93 -87 122 298 callgsubr
            return
          </CharString>
          <CharString index="440">
            190 callgsubr
            -143 vlineto
            return
          </CharString>
          <CharString index="441">
            rmoveto
            -85 -72 43 92 69 47 55 114 hvcurveto
            return
          </CharString>
          <CharString index="442">
            190 callgsubr
            -145 vlineto
            return
          </CharString>
          <CharString index="443">
            -102 -13 2 -15 2 -14 vhcurveto
            return
          </CharString>
          <CharString index="444">
            -52 rmoveto
            -69 43 -14 vlineto
            -36 return
          </CharString>
          <CharString index="445">
            476 hmoveto
            250 callsubr
            return
          </CharString>
          <CharString index="446">
            157 vhcurveto
            30 52 -22 hlineto
            return
          </CharString>
          <CharString index="447">
            -113 -52 74 118 hvcurveto
            return
          </CharString>
          <CharString index="448">
            -133 hhcurveto
            -135 return
          </CharString>
          <CharString index="449">
            vhcurveto
            -1 16 20 0 return
          </CharString>
          <CharString index="450">
            -21 -20 -3 -6 return
          </CharString>
          <CharString index="451">
            85 54 50 callsubr
            return
          </CharString>
          <CharString index="452">
            rmoveto
            -83 -56 54 78 80 57 55 82 80 return
          </CharString>
          <CharString index="453">
            -81 116 116 71 174 callgsubr
            return
          </CharString>
          <CharString index="454">
            hlineto
            -111 64 -83 117 119 64 return
          </CharString>
          <CharString index="455">
            54 53 -49 339 callgsubr
            return
          </CharString>
          <CharString index="456">
            -62 hlineto
            -97 -59 -68 -135 -125 -68 return
          </CharString>
          <CharString index="457">
            -76 -59 76 vlineto
            endchar
          </CharString>
          <CharString index="458">
            128 3 78 return
          </CharString>
        <CharString name=".notdef">
          -105 0 vmoveto
          500 700 -500 hlineto
          250 -305 rmoveto
          -170 255 rlineto
          340 hlineto
          -140 -300 rmoveto
          170 255 rlineto
          -510 vlineto
          -370 -45 rmoveto
          170 255 170 -255 rlineto
          -370 555 rmoveto
          170 -255 -170 -255 rlineto
          endchar
        </CharString>
        <CharString name="A">
          -44 callsubr
          -21 58 79 callgsubr
        </CharString>
        <CharString name="AE">
          277 458 640 127 callsubr
        </CharString>
        <CharString name="Aacute">
          -44 callsubr
          -271 620 -58 callsubr
          45 -690 79 callgsubr
        </CharString>
        <CharString name="Abreve">
          -44 callsubr
          -23 707 -76 callgsubr
          2 -649 79 callgsubr
        </CharString>
        <CharString name="Acircumflex">
          -44 callsubr
          -25 639 -55 callgsubr
          4 -524 79 callgsubr
        </CharString>
        <CharString name="Adieresis">
          -44 callsubr
          -235 601 -98 callgsubr
          60 -543 79 callgsubr
        </CharString>
        <CharString name="Agrave">
          -44 callsubr
          -271 685 -29 callsubr
          250 -690 79 callgsubr
        </CharString>
        <CharString name="Amacron">
          -44 callsubr
          -328 624 rmoveto
          339 54 -339 hlineto
          307 -620 79 callgsubr
        </CharString>
        <CharString name="Aogonek">
          47 287 690 rmoveto
          -255 -690 rlineto
          74 hlineto
          61 166 rlineto
          318 hlineto
          57 -155 rlineto
          -74 -34 -29 -41 -45 vvcurveto
          -67 55 -25 58 24 26 5 8 22 vhcurveto
          49 vlineto
          -9 -22 -23 -5 -20 hhcurveto
          -36 -25 18 33 26 15 24 48 23 hvcurveto
          59 29 -254 690 rlineto
          98 -466 79 callgsubr
        </CharString>
        <CharString name="Aring">
          -44 callsubr
          -159 627 rmoveto
          -32 -26 24 37 38 26 23 32 33 26 -23 -38 -37 -26 -24 -33 hvcurveto
          161 vmoveto
          -55 -47 -38 -62 -62 47 -38 55 57 45 38 62 62 -45 38 -57 hvcurveto
          138 -730 79 callgsubr
        </CharString>
        <CharString name="Atilde">
          -44 callsubr
          -290 584 -98 callsubr
          269 -526 79 callgsubr
        </CharString>
        <CharString name="B">
          -8 478 194 rmoveto
          -84 -60 -51 -101 vhcurveto
          -167 273 164 hlineto
          100 64 -54 -84 hvcurveto
          -17 322 rmoveto
          -78 -53 -48 -95 vhcurveto
          -163 250 160 hlineto
          101 50 -49 -75 hvcurveto
          87 -329 rmoveto
          88 -63 72 -78 14 vhcurveto
          67 19 58 51 92 vvcurveto
          98 -70 78 -147 vhcurveto
          -235 -699 242 hlineto
          147 79 82 105 hvcurveto
          endchar
        </CharString>
        <CharString name="C">
          -53 callsubr
          endchar
        </CharString>
        <CharString name="CR">
          -331 endchar
        </CharString>
        <CharString name="Cacute">
          -53 callsubr
          240 440 -58 callsubr
          endchar
        </CharString>
        <CharString name="Ccaron">
          -53 callsubr
          353 456 -49 callgsubr
        </CharString>
        <CharString name="Ccedilla">
          166 48 350 rmoveto
          -205 141 -144 187 -7 vhcurveto
          -106 46 vlineto
          19 callgsubr
          62 vlineto
          138 11 103 76 46 122 rrcurveto
          -82 hlineto
          -91 -39 -82 -58 -119 hhcurveto
          -153 -117 113 182 183 117 113 153 119 82 -58 -93 39 hvcurveto
          82 hlineto
          134 -50 -116 78 -156 hhcurveto
          -194 -148 -147 -210 hvcurveto
          endchar
        </CharString>
        <CharString name="Cdotaccent">
          -53 callsubr
          353 411 -33 callgsubr
        </CharString>
        <CharString name="D">
          106 callgsubr
          endchar
        </CharString>
        <CharString name="Dcaron">
          106 callgsubr
          61 744 -49 callgsubr
        </CharString>
        <CharString name="Dcroat">
          69 callgsubr
        </CharString>
        <CharString name="E">
          -56 callsubr
          endchar
        </CharString>
        <CharString name="Eacute">
          -56 callsubr
          -309 144 -58 callsubr
          endchar
        </CharString>
        <CharString name="Ebreve">
          -56 callsubr
          -61 231 -76 callgsubr
          endchar
        </CharString>
        <CharString name="Ecaron">
          -56 callsubr
          -197 160 -49 callgsubr
        </CharString>
        <CharString name="Ecircumflex">
          -56 callsubr
          -63 163 -55 callgsubr
          endchar
        </CharString>
        <CharString name="Edieresis">
          -56 callsubr
          -273 125 -98 callgsubr
          endchar
        </CharString>
        <CharString name="Edotaccent">
          -56 callsubr
          -197 115 -33 callgsubr
        </CharString>
        <CharString name="Egrave">
          -56 callsubr
          -309 209 -29 callsubr
          endchar
        </CharString>
        <CharString name="Emacron">
          -56 callsubr
          -367 148 111 callgsubr
        </CharString>
        <CharString name="Eogonek">
          -102 445 700 rmoveto
          -365 -700 265 hlineto
          -59 -33 -23 -36 -40 5 callgsubr
          rlineto
          58 -295 265 265 58 -265 261 295 vlineto
          endchar
        </CharString>
        <CharString name="Eth">
          69 callgsubr
        </CharString>
        <CharString name="Euro">
          213 112 350 rmoveto
          -21 1 -20 3 -20 vhcurveto
          -93 -50 104 hlineto
          -149 42 127 -96 158 hhcurveto
          156 115 78 132 51 hvcurveto
          -82 hlineto
          -89 -39 -82 -58 -119 hhcurveto
          -118 -97 68 114 -38 hvcurveto
          254 50 -266 hlineto
          -3 19 -2 21 21 vvcurveto
          18 1 17 2 17 vhcurveto
          268 50 -257 hlineto
          120 35 99 72 122 hhcurveto
          119 82 -58 -91 39 hvcurveto
          82 hlineto
          134 -51 -115 78 -156 hhcurveto
          -161 -129 -101 -154 -39 hvcurveto
          -102 -50 92 hlineto
          -2 -17 -1 -17 -18 vvcurveto
          endchar
        </CharString>
        <CharString name="F">
          -112 80 hmoveto
          70 322 260 58 -260 261 308 58 -378 hlineto
          endchar
        </CharString>
        <CharString name="G">
          177 394 707 -56 callgsubr
          endchar
        </CharString>
        <CharString name="Gbreve">
          177 394 707 -56 callgsubr
          140 166 -76 callgsubr
          endchar
        </CharString>
        <CharString name="Gdotaccent">
          177 394 707 -56 callgsubr
          3 50 -33 callgsubr
        </CharString>
        <CharString name="H">
          74 529 hmoveto
          70 699 -70 -314 -379 314 -70 -699 70 327 379 hlineto
          endchar
        </CharString>
        <CharString name="I">
          119 callgsubr
          endchar
        </CharString>
        <CharString name="Iacute">
          119 callgsubr
          -78 87 -58 callsubr
          endchar
        </CharString>
        <CharString name="Icircumflex">
          119 callgsubr
          169 106 -55 callgsubr
          endchar
        </CharString>
        <CharString name="Idieresis">
          119 callgsubr
          -42 68 -98 callgsubr
          endchar
        </CharString>
        <CharString name="Idotaccent">
          119 callgsubr
          34 58 -33 callgsubr
        </CharString>
        <CharString name="Igrave">
          119 callgsubr
          -78 152 -29 callsubr
          endchar
        </CharString>
        <CharString name="Imacron">
          119 callgsubr
          -135 91 111 callgsubr
        </CharString>
        <CharString name="Iogonek">
          -376 153 -187 rmoveto
          -5 callsubr
          58 28 rlineto
          2 699 -70 -683 236 callsubr
          endchar
        </CharString>
        <CharString name="Itilde">
          119 callgsubr
          -97 51 -98 callsubr
          endchar
        </CharString>
        <CharString name="J">
          -106 333 170 rmoveto
          -58 -29 -57 -81 -83 -31 59 70 -1 vhcurveto
          -71 hlineto
          -118 73 -73 113 110 70 71 106 vhcurveto
          529 -70 vlineto
          endchar
        </CharString>
        <CharString name="K">
          -37 453 hmoveto
          184 callgsubr
        </CharString>
        <CharString name="L">
          -184 80 699 rmoveto
          177 callsubr
          endchar
        </CharString>
        <CharString name="Lacute">
          -184 80 699 rmoveto
          177 callsubr
          -50 87 -58 callsubr
          endchar
        </CharString>
        <CharString name="Lcaron">
          -174 267 699 rmoveto
          -76 46 -24 vlineto
          -34 -13 -18 -34 vhcurveto
          -36 vlineto
          58 33 30 73 24 -3 28 -6 33 hvcurveto
          -268 hmoveto
          177 callsubr
          endchar
        </CharString>
        <CharString name="Ldot">
          -184 80 699 rmoveto
          177 callsubr
          62 58 -33 callgsubr
        </CharString>
        <CharString name="Lslash">
          -175 95 699 rmoveto
          -321 vlineto
          -86 -34 rlineto
          -55 vlineto
          86 34 rlineto
          -323 321 55 -251 295 vlineto
          125 49 rlineto
          55 vlineto
          -125 -49 rlineto
          294 vlineto
          endchar
        </CharString>
        <CharString name="M">
          237 80 hmoveto
          70 549 hlineto
          246 -549 rlineto
          51 hlineto
          246 551 rlineto
          -551 70 690 -75 vlineto
          -267 -598 -267 598 rlineto
          -74 hlineto
          endchar
        </CharString>
        <CharString name="N">
          81 537 699 32 callsubr
          endchar
        </CharString>
        <CharString name="NULL">
          -605 endchar
        </CharString>
        <CharString name="Nacute">
          81 537 699 32 callsubr
          -376 87 -58 callsubr
          endchar
        </CharString>
        <CharString name="Ncaron">
          81 537 699 32 callsubr
          -263 103 -49 callgsubr
        </CharString>
        <CharString name="Ntilde">
          81 537 699 32 callsubr
          -395 51 -98 callsubr
          endchar
        </CharString>
        <CharString name="O">
          -102 callgsubr
          endchar
        </CharString>
        <CharString name="OE">
          487 1034 643 rmoveto
          56 -366 -169 vlineto
          110 -45 -106 67 -128 hhcurveto
          -191 -150 -147 -210 -210 150 -147 191 128 106 66 112 45 hvcurveto
          -171 366 56 -296 268 266 55 -266 264 vlineto
          -344 hmoveto
          155 119 -112 -181 -181 -119 -113 -155 143 callgsubr
          hvcurveto
          endchar
        </CharString>
        <CharString name="Oacute">
          -102 callgsubr
          166 436 -58 callsubr
          endchar
        </CharString>
        <CharString name="Ocircumflex">
          -102 callgsubr
          413 455 -55 callgsubr
          endchar
        </CharString>
        <CharString name="Odieresis">
          -102 callgsubr
          203 417 -98 callgsubr
          endchar
        </CharString>
        <CharString name="Ograve">
          -102 callgsubr
          166 501 -29 callsubr
          endchar
        </CharString>
        <CharString name="Ohungarumlaut">
          -102 callgsubr
          242 534 37 callsubr
        </CharString>
        <CharString name="Omacron">
          -102 callgsubr
          109 440 111 callgsubr
        </CharString>
        <CharString name="Oslash">
          183 740 350 rmoveto
          99 -33 85 -57 63 vhcurveto
          95 103 rlineto
          -59 hlineto
          -67 -73 rlineto
          51 -60 -78 29 -87 hhcurveto
          -196 -150 -148 -209 -99 33 -85 56 -62 hvcurveto
          -95 -104 rlineto
          60 hlineto
          67 73 rlineto
          -51 60 78 -29 87 hhcurveto
          197 149 147 210 hvcurveto
          -620 hmoveto
          183 119 112 155 70 63 -23 -42 48 vhcurveto
          -393 -428 rlineto
          -39 50 -23 67 81 vvcurveto
          274 -296 rmoveto
          -71 -63 23 43 -48 hvcurveto
          393 428 rlineto
          40 -50 23 -67 -81 vvcurveto
          -183 -119 -113 -155 vhcurveto
          endchar
        </CharString>
        <CharString name="Otilde">
          -102 callgsubr
          147 400 -98 callsubr
          endchar
        </CharString>
        <CharString name="P">
          -41 150 358 rmoveto
          282 141 vlineto
          118 46 -52 -90 -86 -46 -54 -118 hvcurveto
          236 140 rmoveto
          115 -74 86 -162 vhcurveto
          -211 -699 70 298 141 hlineto
          164 72 87 113 hvcurveto
          endchar
        </CharString>
        <CharString name="Q">
          184 120 350 rmoveto
          183 119 112 155 155 119 -112 -183 -183 -119 -113 -155 -155 -119 113 183 vhcurveto
          620 hmoveto
          209 -149 148 -197 -196 -150 -148 -209 -210 150 -147 196 37 36 5 10 34 vhcurveto
          156 -145 rlineto
          94 hlineto
          -187 172 rlineto
          107 58 69 114 143 vvcurveto
          endchar
        </CharString>
        <CharString name="R">
          -2 callgsubr
          endchar
        </CharString>
        <CharString name="Racute">
          -2 callgsubr
          -96 87 -58 callsubr
          endchar
        </CharString>
        <CharString name="Rcaron">
          -2 callgsubr
          16 103 -49 callgsubr
        </CharString>
        <CharString name="S">
          -33 517 184 -61 callgsubr
          -107 4 92 -80 140 hhcurveto
          148 77 96 95 hvcurveto
          endchar
        </CharString>
        <CharString name="Sacute">
          -33 517 184 -61 callgsubr
          -107 4 92 -80 140 hhcurveto
          148 77 96 95 hvcurveto
          -346 606 -58 callsubr
          endchar
        </CharString>
        <CharString name="Scaron">
          -33 517 184 -61 callgsubr
          -107 4 92 -80 140 hhcurveto
          148 77 96 95 hvcurveto
          -233 622 -49 callgsubr
        </CharString>
        <CharString name="T">
          -85 30 641 205 callsubr
          endchar
        </CharString>
        <CharString name="Tcaron">
          -85 30 641 205 callsubr
          230 103 -49 callgsubr
        </CharString>
        <CharString name="Thorn">
          -41 150 207 rmoveto
          287 141 vlineto
          118 46 -55 -89 -86 -46 -57 -118 hvcurveto
          236 143 rmoveto
          115 -74 86 -162 vhcurveto
          -142 149 -69 -700 70 150 141 hlineto
          164 72 86 114 hvcurveto
          endchar
        </CharString>
        <CharString name="U">
          -85 callsubr
          endchar
        </CharString>
        <CharString name="Uacute">
          -85 callsubr
          141 87 -58 callsubr
          endchar
        </CharString>
        <CharString name="Ubreve">
          -85 callsubr
          389 174 -76 callgsubr
          endchar
        </CharString>
        <CharString name="Ucircumflex">
          -85 callsubr
          387 106 -55 callgsubr
          endchar
        </CharString>
        <CharString name="Udieresis">
          -85 callsubr
          177 68 -98 callgsubr
          endchar
        </CharString>
        <CharString name="Ugrave">
          -85 callsubr
          141 152 -29 callsubr
          endchar
        </CharString>
        <CharString name="Uhungarumlaut">
          -85 callsubr
          217 185 37 callsubr
        </CharString>
        <CharString name="Umacron">
          -85 callsubr
          84 91 111 callgsubr
        </CharString>
        <CharString name="Uogonek">
          56 77 260 rmoveto
          -167 91 -83 123 -15 vhcurveto
          -54 -31 -20 -35 -38 5 callgsubr
          rlineto
          108 23 78 83 154 vvcurveto
          439 -70 -440 vlineto
          -145 -74 -59 -109 -109 -76 59 145 vhcurveto
          440 -70 vlineto
          endchar
        </CharString>
        <CharString name="Uring">
          -85 callsubr
          253 255 15 callsubr
          endchar
        </CharString>
        <CharString name="Utilde">
          -85 callsubr
          122 51 -98 callsubr
          endchar
        </CharString>
        <CharString name="V">
          54 329 76 rmoveto
          -229 623 rlineto
          -76 hlineto
          265 -699 rlineto
          80 hlineto
          265 699 rlineto
          -74 hlineto
          endchar
        </CharString>
        <CharString name="W">
          -38 callgsubr
          endchar
        </CharString>
        <CharString name="Wacute">
          -38 callgsubr
          418 100 -58 callsubr
          endchar
        </CharString>
        <CharString name="Wcircumflex">
          -38 callgsubr
          583 119 -55 callgsubr
          endchar
        </CharString>
        <CharString name="Wdieresis">
          -38 callgsubr
          372 79 -98 callgsubr
          endchar
        </CharString>
        <CharString name="Wgrave">
          -38 callgsubr
          281 162 -29 callsubr
          endchar
        </CharString>
        <CharString name="X">
          -20 466 hmoveto
          78 hlineto
          -212 349 213 350 rlineto
          -78 hlineto
          -171 -291 -177 291 rlineto
          -78 hlineto
          211 -347 -211 -352 rlineto
          78 hlineto
          169 292 rlineto
          endchar
        </CharString>
        <CharString name="Y">
          -12 callgsubr
          endchar
        </CharString>
        <CharString name="Yacute">
          -12 callgsubr
          148 87 -58 callsubr
          endchar
        </CharString>
        <CharString name="Ycircumflex">
          -12 callgsubr
          395 106 -55 callgsubr
          endchar
        </CharString>
        <CharString name="Ydieresis">
          -12 callgsubr
          184 68 -98 callgsubr
          endchar
        </CharString>
        <CharString name="Ygrave">
          -12 callgsubr
          148 152 -29 callsubr
          endchar
        </CharString>
        <CharString name="Z">
          52 callgsubr
          endchar
        </CharString>
        <CharString name="Zacute">
          52 callgsubr
          -327 143 -58 callsubr
          endchar
        </CharString>
        <CharString name="Zcaron">
          52 callgsubr
          -214 159 -49 callgsubr
        </CharString>
        <CharString name="Zdotaccent">
          52 callgsubr
          -214 114 -33 callgsubr
        </CharString>
        <CharString name="a">
          -100 callsubr
          endchar
        </CharString>
        <CharString name="a.ss02">
          -14 440 hmoveto
          -102 callsubr
        </CharString>
        <CharString name="aacute">
          -100 callsubr
          -299 369 -58 callsubr
          endchar
        </CharString>
        <CharString name="aacute.ss02">
          -14 226 325 callgsubr
          9 -770 rmoveto
          -102 callsubr
        </CharString>
        <CharString name="abreve">
          -100 callsubr
          -50 456 -76 callgsubr
          endchar
        </CharString>
        <CharString name="abreve.ss02">
          -14 475 729 -76 callgsubr
          -35 -729 rmoveto
          -102 callsubr
        </CharString>
        <CharString name="acircumflex">
          -100 callsubr
          -52 388 -55 callgsubr
          endchar
        </CharString>
        <CharString name="acircumflex.ss02">
          -14 473 661 -55 callgsubr
          -33 -604 rmoveto
          -102 callsubr
        </CharString>
        <CharString name="acute">
          -352 24 325 callgsubr
          endchar
        </CharString>
        <CharString name="adieresis">
          -100 callsubr
          -262 350 -98 callgsubr
          endchar
        </CharString>
        <CharString name="adieresis.ss02">
          -14 263 623 -98 callgsubr
          23 -623 rmoveto
          -102 callsubr
        </CharString>
        <CharString name="ae">
          503 -17 callsubr
          endchar
        </CharString>
        <CharString name="agrave">
          -100 callsubr
          -299 434 -29 callsubr
          endchar
        </CharString>
        <CharString name="agrave.ss02">
          -14 226 707 -29 callsubr
          214 -770 rmoveto
          -102 callsubr
        </CharString>
        <CharString name="amacron">
          -100 callsubr
          -356 373 111 callgsubr
        </CharString>
        <CharString name="amacron.ss02">
          -12 169 646 rmoveto
          339 54 -339 hlineto
          271 -700 rmoveto
          -102 callsubr
        </CharString>
        <CharString name="ampersand">
          114 479 555 rmoveto
          92 4 -70 63 -100 hhcurveto
          -107 -69 -62 -88 -52 20 -42 47 -51 hvcurveto
          -108 -42 -57 -75 -98 vvcurveto
          -128 97 -84 141 98 74 35 74 68 vhcurveto
          95 -97 rlineto
          91 hlineto
          -146 147 18 25 18 28 18 31 rlinecurve
          76 131 rlineto
          -75 hlineto
          -64 -107 -13 -22 -12 -20 -13 -18 rlinecurve
          -230 233 rlineto
          -48 51 -25 37 45 vvcurveto
          53 41 38 62 54 46 -34 -63 -1 vhcurveto
          -132 -506 rmoveto
          -99 -69 65 88 77 44 56 95 35 hvcurveto
          223 -226 rlineto
          -65 -56 -59 -30 -79 hhcurveto
          endchar
        </CharString>
        <CharString name="ampersand.ss03">
          66 164 570 rmoveto
          -63 30 -45 43 -51 vhcurveto
          14 -15 rlineto
          2 -8 -8 1 -9 hhcurveto
          -102 -86 -75 -125 -126 93 -81 111 105 80 76 99 10 hvcurveto
          144 -167 rlineto
          83 hlineto
          -380 457 rlineto
          -32 38 -18 29 45 vvcurveto
          52 37 46 65 67 41 -43 -65 -10 -1 -13 -3 -10 vhcurveto
          68 hlineto
          4 12 2 14 14 vvcurveto
          80 -57 80 -121 -113 -59 -77 -79 vhcurveto
          -63 -371 rmoveto
          90 58 53 74 74 72 -64 -85 -81 -59 -60 -78 -76 -65 57 90 vhcurveto
          endchar
        </CharString>
        <CharString name="aogonek">
          50 callgsubr
          149 109 232 callgsubr
          -106 vlineto
          -4 -2 rlineto
          -79 -36 -29 -41 -45 5 callgsubr
          rlineto
          546 -70 -120 vlineto
          69 -31 -75 59 -110 -96 callsubr
          endchar
        </CharString>
        <CharString name="aogonek.ss02">
          -14 514 -188 rmoveto
          67 callsubr
          rlineto
          319 vlineto
          152 -93 83 -128 -130 -82 -84 -111 -16 vhcurveto
          69 hlineto
          84 13 60 50 84 hhcurveto
          96 53 -63 -110 3 hvcurveto
          -181 hlineto
          -143 -68 -74 -96 -94 75 -66 107 97 81 54 72 32 hvcurveto
          -102 vlineto
          -3 -1 176 callgsubr
          -396 343 rmoveto
          63 46 45 95 vhcurveto
          181 -18 hlineto
          -123 -96 -71 -101 -76 -49 42 62 vhcurveto
          endchar
        </CharString>
        <CharString name="apostrophemod.ss01">
          -455 30 772 rmoveto
          141 callsubr
        </CharString>
        <CharString name="approxequal">
          -118 38 221 rmoveto
          71 callsubr
          200 vmoveto
          71 callsubr
          endchar
        </CharString>
        <CharString name="aring">
          -100 callsubr
          -186 537 15 callsubr
          endchar
        </CharString>
        <CharString name="aring.ss02">
          -14 339 810 15 callsubr
          101 -649 rmoveto
          -102 callsubr
        </CharString>
        <CharString name="asciicircum">
          1 496 171 rmoveto
          73 hlineto
          -234 519 rlineto
          -63 hlineto
          -234 -519 rlineto
          72 hlineto
          194 431 rlineto
          endchar
        </CharString>
        <CharString name="asciitilde">
          -118 38 257 rmoveto
          71 callsubr
          endchar
        </CharString>
        <CharString name="asterisk">
          -136 266 732 rmoveto
          -59 hlineto
          12 -157 -130 87 -29 -52 141 -63 -142 -64 30 -53 129 87 -11 -157 rlineto
          58 hlineto
          -12 157 129 -86 29 52 -142 64 141 64 -28 51 -129 -87 rlineto
          endchar
        </CharString>
        <CharString name="at">
          397 720 -6 rmoveto
          132 75 157 152 197 -140 136 -220 -286 -206 -219 -281 -203 142 -128 211 67 65 12 24 59 hvcurveto
          -11 49 rlineto
          -23 -50 -59 -11 -56 hhcurveto
          -190 -120 104 183 1 hvcurveto
          246 180 196 244 194 117 -108 -178 -113 -49 -143 -90 -51 -14 41 59 10 vhcurveto
          51 291 rlineto
          -61 hlineto
          -13 -74 rlineto
          56 -20 -47 30 -67 hhcurveto
          -144 -98 -134 -147 -104 59 -67 102 72 68 37 62 41 hvcurveto
          -59 3 32 -40 67 hhcurveto
          -87 244 rmoveto
          -112 -12 -74 -77 -90 hhcurveto
          -76 -40 50 76 108 67 108 110 87 38 -69 -84 -10 hvcurveto
          endchar
        </CharString>
        <CharString name="atilde">
          -100 callsubr
          -318 333 -98 callsubr
          endchar
        </CharString>
        <CharString name="atilde.ss02">
          -14 207 606 -98 callsubr
          233 -606 rmoveto
          -102 callsubr
        </CharString>
        <CharString name="b">
          70 149 425 rmoveto
          315 -69 -740 69 120 vlineto
          -71 33 75 -57 217 callgsubr
          -110 109 -150 -107 -76 -57 -72 -34 hvcurveto
          406 -151 115 callgsubr
        </CharString>
        <CharString name="backslash">
          -2 172 940 rmoveto
          -71 hlineto
          326 -1106 rlineto
          69 hlineto
          endchar
        </CharString>
        <CharString name="bar">
          -344 96 790 rmoveto
          -890 70 890 vlineto
          endchar
        </CharString>
        <CharString name="braceleft">
          -192 191 227 rmoveto
          -79 -22 -102 -88 vvcurveto
          -98 58 -47 87 vhcurveto
          50 61 -38 hlineto
          -57 -32 25 64 hvcurveto
          82 22 104 80 vvcurveto
          70 -33 55 -79 18 vhcurveto
          2 vlineto
          79 18 33 55 70 81 -22 103 82 vvcurveto
          64 32 25 57 vhcurveto
          38 61 -50 hlineto
          -87 -58 -47 -98 hvcurveto
          -88 22 -101 -80 vvcurveto
          -49 -21 -49 -84 -19 vhcurveto
          -57 vlineto
          84 -20 21 -49 -49 vvcurveto
          endchar
        </CharString>
        <CharString name="braceright">
          -192 222 227 rmoveto
          -79 22 -102 -88 vvcurveto
          -98 -58 -47 -87 vhcurveto
          -50 61 38 hlineto
          57 32 25 64 hvcurveto
          82 -22 104 80 vvcurveto
          70 33 55 79 18 vhcurveto
          2 vlineto
          -79 18 -33 55 70 81 22 103 82 vvcurveto
          64 -32 25 -57 vhcurveto
          -38 61 50 hlineto
          87 58 -47 -98 hvcurveto
          -88 -22 -101 -80 vvcurveto
          -49 21 -49 84 -19 vhcurveto
          -57 vlineto
          -84 -20 -21 -49 -49 vvcurveto
          endchar
        </CharString>
        <CharString name="bracketleft">
          -238 119 -186 rmoveto
          154 59 -88 1003 88 58 -154 hlineto
          endchar
        </CharString>
        <CharString name="bracketright">
          -238 248 -186 rmoveto
          -154 59 88 1003 -88 58 154 hlineto
          endchar
        </CharString>
        <CharString name="breve">
          -286 295 729 -76 callgsubr
          endchar
        </CharString>
        <CharString name="brokenbar">
          -344 96 270 rmoveto
          -370 70 370 vlineto
          150 vmoveto
          370 -70 -370 vlineto
          endchar
        </CharString>
        <CharString name="bullet">
          -239 182 218 rmoveto
          65 51 51 64 65 -51 51 -65 -63 -52 -51 -65 -64 52 -51 63 hvcurveto
          endchar
        </CharString>
        <CharString name="c">
          -39 callsubr
          endchar
        </CharString>
        <CharString name="cacute">
          -39 callsubr
          147 369 -58 callsubr
          endchar
        </CharString>
        <CharString name="caron">
          -289 158 658 -49 callgsubr
        </CharString>
        <CharString name="ccaron">
          -39 callsubr
          260 385 -49 callgsubr
        </CharString>
        <CharString name="ccedilla">
          8 48 273 rmoveto
          -163 99 -105 140 -12 vhcurveto
          -105 46 vlineto
          19 callgsubr
          60 vlineto
          124 8 80 74 24 103 rrcurveto
          -75 hlineto
          -80 -19 -65 -47 -92 hhcurveto
          -107 -87 74 148 148 87 73 107 92 66 -48 -78 18 hvcurveto
          75 hlineto
          113 -25 -89 73 -137 hhcurveto
          -154 -111 -108 -173 hvcurveto
          endchar
        </CharString>
        <CharString name="cdotaccent">
          -39 callsubr
          260 340 -33 callgsubr
        </CharString>
        <CharString name="cedilla">
          -340 113 7 rmoveto
          -49 -119 46 hlineto
          19 callgsubr
          endchar
        </CharString>
        <CharString name="cent">
          37 548 192 rmoveto
          -66 hlineto
          -76 -16 -60 -48 -91 hhcurveto
          -103 -82 66 130 130 82 67 103 91 60 -48 -76 16 hvcurveto
          66 hlineto
          -14 100 -79 75 -122 6 rrcurveto
          96 -44 -96 vlineto
          -141 -11 -85 -101 -142 vvcurveto
          -141 85 -101 141 -11 vhcurveto
          -101 44 100 vlineto
          122 7 79 75 14 100 rrcurveto
          endchar
        </CharString>
        <CharString name="circumflex">
          -289 292 661 -55 callgsubr
          endchar
        </CharString>
        <CharString name="colon">
          -420 142 243 callsubr
          435 vmoveto
          167 callsubr
        </CharString>
        <CharString name="colon.ss01">
          -404 52 hmoveto
          329 callgsubr
          342 vmoveto
          92 94 -92 hlineto
          endchar
        </CharString>
        <CharString name="comma">
          -432 -8 -146 198 callgsubr
          endchar
        </CharString>
        <CharString name="comma.ss01">
          -438 34 75 rmoveto
          -76 47 -15 vlineto
          -39 -14 -21 -35 vhcurveto
          -38 vlineto
          61 37 34 80 22 -4 25 -6 28 hvcurveto
          endchar
        </CharString>
        <CharString name="copyright">
          191 53 350 rmoveto
          -207 140 -147 205 205 140 147 207 207 -140 146 -205 -205 -140 -146 -207 vhcurveto
          654 hmoveto
          -188 -119 -132 -190 -190 -119 132 188 189 119 131 190 190 119 -131 -189 vhcurveto
          -105 83 rmoveto
          -65 hlineto
          65 -21 -54 34 -64 hhcurveto
          -83 -70 -62 -120 -120 70 -61 83 67 50 34 64 22 hvcurveto
          65 hlineto
          -93 -26 -80 -57 -98 hhcurveto
          -118 -98 85 149 147 98 86 118 98 80 -54 -97 26 hvcurveto
          endchar
        </CharString>
        <CharString name="currency">
          -79 372 377 rmoveto
          -83 -53 -46 -57 -60 -48 46 83 82 48 48 60 58 52 -48 -82 vhcurveto
          54 -201 rmoveto
          33 33 -60 60 rlineto
          21 29 12 36 43 vvcurveto
          43 -13 37 -21 29 vhcurveto
          61 61 -33 33 -60 -61 rlineto
          21 -29 -35 12 -39 hhcurveto
          -39 -36 -12 -21 -28 hvcurveto
          -61 61 -33 -33 61 -61 rlineto
          -21 -28 -12 -38 -43 vvcurveto
          -43 11 -37 21 -28 vhcurveto
          -60 -60 33 -33 59 59 rlineto
          -21 28 36 -12 40 hhcurveto
          39 36 12 22 29 hvcurveto
          endchar
        </CharString>
        <CharString name="d">
          50 callgsubr
          150 108 76 58 72 32 vhcurveto
          -122 70 740 -70 -312 vlineto
          72 -35 -82 54 -98 7 callgsubr
        </CharString>
        <CharString name="dagger">
          -94 283 539 rmoveto
          7 240 rlineto
          -69 hlineto
          7 -240 291 callsubr
          -7 -754 rlineto
          69 hlineto
          -7 754 188 -7 rlineto
          57 vlineto
          endchar
        </CharString>
        <CharString name="daggerdbl">
          -93 472 546 rmoveto
          -188 -7 6 240 rlineto
          -69 hlineto
          8 -240 291 callsubr
          rlineto
          -471 vlineto
          291 callsubr
          -8 -240 rlineto
          69 hlineto
          -6 240 188 -7 rlineto
          57 vlineto
          -188 -7 rlineto
          471 vlineto
          188 -7 rlineto
          endchar
        </CharString>
        <CharString name="danda">
          -339 222 317 callgsubr
          endchar
        </CharString>
        <CharString name="dcaron">
          125 648 740 rmoveto
          -76 46 -25 vlineto
          -33 -12 -18 -35 vhcurveto
          -36 vlineto
          59 33 29 74 24 -3 28 -7 33 hvcurveto
          -681 -466 68 callgsubr
          150 108 76 58 72 32 vhcurveto
          -122 70 740 -70 -312 vlineto
          72 -35 -82 54 -98 7 callgsubr
        </CharString>
        <CharString name="dcroat">
          66 80 callsubr
          150 108 76 58 72 32 vhcurveto
          -122 70 618 63 44 -63 78 -70 -78 -140 -44 140 -190 vlineto
          72 -35 -82 54 -98 7 callgsubr
        </CharString>
        <CharString name="degree">
          -211 29 522 rmoveto
          -105 67 -70 100 98 71 70 105 106 -70 69 -98 -98 -70 -69 -106 vhcurveto
          278 hmoveto
          -85 -49 -46 -62 -64 -46 46 85 85 48 47 62 63 48 -47 -85 vhcurveto
          endchar
        </CharString>
        <CharString name="dieresis">
          -290 81 623 -98 callgsubr
          endchar
        </CharString>
        <CharString name="divide">
          32 67 341 rmoveto
          509 59 -509 hlineto
          307 -243 rmoveto
          -36 callgsubr
          429 vmoveto
          167 callsubr
        </CharString>
        <CharString name="divide.ss01">
          32 67 339 rmoveto
          509 62 -509 hlineto
          209 -290 rmoveto
          92 94 -92 hlineto
          332 vmoveto
          329 callgsubr
          endchar
        </CharString>
        <CharString name="dollar">
          -8 264 -87 rmoveto
          44 80 hlineto
          139 6 65 95 90 vvcurveto
          139 -104 30 -100 26 vhcurveto
          267 vlineto
          74 -12 37 -53 7 -44 rrcurveto
          74 hlineto
          -11 89 -67 69 -114 11 rrcurveto
          85 -44 -84 vlineto
          -127 -6 -77 -76 -104 vvcurveto
          -136 104 -29 100 -27 vhcurveto
          -277 vlineto
          -85 12 -38 61 -5 53 rrcurveto
          -75 hlineto
          5 -100 79 -73 119 -11 rrcurveto
          178 187 rmoveto
          -69 -46 -57 -88 -5 vhcurveto
          266 vlineto
          73 -22 61 -29 -84 vvcurveto
          -311 343 rmoveto
          80 56 41 77 4 vhcurveto
          -257 vlineto
          -73 21 -60 29 82 vvcurveto
          endchar
        </CharString>
        <CharString name="dotaccent">
          -458 73 623 -33 callgsubr
        </CharString>
        <CharString name="dotlessi">
          133 callgsubr
          endchar
        </CharString>
        <CharString name="dottedcircle">
          46 557 409 -35 callsubr
          -376 -286 -35 callsubr
          98 -76 -35 callsubr
          -143 189 -35 callsubr
          267 -203 -35 callsubr
          -252 324 -35 callsubr
          367 -278 -35 callsubr
          -291 377 -35 callsubr
          364 -281 -35 callsubr
          -247 323 -35 callsubr
          257 -203 -35 callsubr
          -136 188 -35 callsubr
          endchar
        </CharString>
        <CharString name="doubledanda">
          -145 222 317 callgsubr
          194 317 callgsubr
          endchar
        </CharString>
        <CharString name="dvA">
          219 285 441 rmoveto
          -70 callgsubr
          -36 callsubr
          -204 -342 -239 vlineto
          -44 callgsubr
          endchar
        </CharString>
        <CharString name="dvAA">
          499 285 441 rmoveto
          -70 callgsubr
          63 323 callsubr
          -491 -342 -239 vlineto
          -44 callgsubr
          endchar
        </CharString>
        <CharString name="dvAI">
          47 346 19 rmoveto
          142 84 85 144 hvcurveto
          46 callsubr
          -123 92 callgsubr
          -525 -54 216 callgsubr
          vhcurveto
          endchar
        </CharString>
        <CharString name="dvAU">
          266 callsubr
          -145 vlineto
          281 -143 -41 12 -125 52 callsubr
          -289 -342 -239 hlineto
          -44 callgsubr
          -70 callgsubr
          vlineto
          endchar
        </CharString>
        <CharString name="dvAbbreviationsign">
          -107 251 512 rmoveto
          -97 -69 -66 -94 -93 69 -67 97 96 66 66 93 95 -66 66 -96 hvcurveto
          -42 vmoveto
          70 49 -50 -69 -69 -49 -48 -70 -72 -52 49 69 69 52 49 72 hvcurveto
          endchar
        </CharString>
        <CharString name="dvAcandra">
          221 285 441 rmoveto
          -70 callgsubr
          -36 callsubr
          -204 -342 -239 vlineto
          -44 callgsubr
          404 403 21 callsubr
        </CharString>
        <CharString name="dvAnusvara">
          -605 -144 841 2 callgsubr
        </CharString>
        <CharString name="dvAnusvara.amI">
          -605 120 841 2 callgsubr
        </CharString>
        <CharString name="dvAvagraha">
          -34 81 65 rmoveto
          246 hlineto
          97 45 55 62 hvcurveto
          158 -266 88 121 vvcurveto
          56 44 12 51 vhcurveto
          183 55 -197 hlineto
          -79 -67 -30 -85 hvcurveto
          -162 267 -87 -118 vvcurveto
          -38 -30 -32 -62 vhcurveto
          -232 hlineto
          endchar
        </CharString>
        <CharString name="dvB">
          -184 324 99 rmoveto
          156 88 112 128 111 -75 127 -171 -33 callsubr
          hvcurveto
          -1 431 -75 callsubr
          -352 156 rmoveto
          598 54 -598 hlineto
          354 -594 -84 callsubr
          endchar
        </CharString>
        <CharString name="dvBA">
          84 516 hmoveto
          62 -47 callsubr
          -747 -54 545 -228 hlineto
          182 callgsubr
          -134 -106 -93 -146 102 callgsubr
          hvcurveto
          -190 316 -19 callsubr
        </CharString>
        <CharString name="dvBH">
          -103 -24 callgsubr
          197 53 -197 28 callgsubr
        </CharString>
        <CharString name="dvBHA">
          175 -24 callgsubr
          175 -398 -28 callgsubr
          -205 -289 -175 28 callgsubr
        </CharString>
        <CharString name="dvBH_LA">
          802 -24 callgsubr
          160 vlineto
          -6 -23 -3 -26 -27 vvcurveto
          -138 80 238 callgsubr
          11 1 1 12 vhcurveto
          57 vlineto
          -1 -10 -11 -1 -9 hhcurveto
          -113 -59 78 107 97 49 73 98 92 46 -11 callsubr
          54 8 callgsubr
          94 46 -76 -94 -107 -59 -78 -113 -9 -10 1 1 -11 vhcurveto
          -57 vlineto
          -1 12 11 -1 10 hhcurveto
          154 79 105 138 120 -60 85 -97 18 hvcurveto
          141 261 54 -883 -54 559 -139 vlineto
          -96 -11 -43 -74 -15 -67 rrcurveto
          -3 hlineto
          72 -15 -49 81 -108 hhcurveto
          -78 -61 -36 -61 -35 hvcurveto
          -181 91 hlineto
          31 callsubr
        </CharString>
        <CharString name="dvBH_NA">
          690 -24 callgsubr
          167 vlineto
          -10 -24 -6 -27 -30 -4 callsubr
          -28 callgsubr
          -744 -54 539 -180 -336 hlineto
          -61 -53 -19 -36 -36 hvcurveto
          -204 91 hlineto
          -68 callgsubr
          521 74 -105 callgsubr
          endchar
        </CharString>
        <CharString name="dvBH_R">
          -103 144 callsubr
          1 -53 rmoveto
          104 66 74 127 hvcurveto
          68 198 53 -198 88 vlineto
          84 callgsubr
          -97 -103 vlineto
          -107 -78 -59 -103 -96 70 -64 106 hvcurveto
          12 -202 rmoveto
          73 hlineto
          283 284 rlineto
          63 vlineto
          endchar
        </CharString>
        <CharString name="dvBH_RA">
          175 144 callsubr
          1 -53 rmoveto
          104 66 74 127 hvcurveto
          68 198 -123 vlineto
          -356 -348 rlineto
          73 hlineto
          286 287 rlineto
          -217 59 -96 callgsubr
          -203 -286 -198 88 vlineto
          84 callgsubr
          -97 -103 vlineto
          -107 -78 -59 -103 -96 70 -64 106 hvcurveto
          endchar
        </CharString>
        <CharString name="dvBH_R_YA">
          625 144 callsubr
          588 -11 6 callgsubr
          -587 -42 rmoveto
          104 66 74 127 hvcurveto
          68 141 vlineto
          -57 10 -50 20 -41 vhcurveto
          -329 -323 rlineto
          73 hlineto
          282 281 rlineto
          -59 44 71 -33 92 hhcurveto
          114 74 54 64 34 hvcurveto
          149 callgsubr
          -171 91 hlineto
          84 callgsubr
          -100 -103 vlineto
          -107 -78 -58 -101 -96 70 -64 106 hvcurveto
          endchar
        </CharString>
        <CharString name="dvBH_VA">
          576 -24 callgsubr
          156 246 callgsubr
          135 100 66 50 66 31 vhcurveto
          -220 172 callgsubr
          -648 -54 445 -231 vlineto
          65 -31 -65 50 -101 hhcurveto
          -92 -77 -45 -74 -37 hvcurveto
          -175 91 hlineto
          -68 callgsubr
          105 callgsubr
        </CharString>
        <CharString name="dvBH_YA">
          625 -24 callgsubr
          140 vlineto
          -168 95 -111 168 114 74 54 64 34 vhcurveto
          149 callgsubr
          -170 91 hlineto
          -68 callgsubr
          587 63 6 callgsubr
          endchar
        </CharString>
        <CharString name="dvB_BA">
          526 323 530 -75 callsubr
          635 -530 rmoveto
          62 -47 callsubr
          -1189 -54 987 -228 hlineto
          182 callgsubr
          -95 -81 -47 -80 -38 hvcurveto
          71 -34 -71 57 -115 hhcurveto
          -33 callsubr
          107 75 53 75 36 hvcurveto
          -80 39 82 -47 96 hhcurveto
          101 67 51 64 31 hvcurveto
          -633 -69 -84 callsubr
          445 2 26 callsubr
        </CharString>
        <CharString name="dvB_BHA">
          604 687 166 rmoveto
          -67 159 callsubr
          -70 vhcurveto
          1 -55 rmoveto
          108 95 callsubr
          -17 -3 -6 -15 vhcurveto
          -671 -54 668 2 hlineto
          19 -2 rlineto
          4 12 12 3 15 hhcurveto
          71 31 -56 -86 hvcurveto
          -100 -102 vlineto
          -57 -48 -17 -33 -33 hvcurveto
          92 -23 -75 84 -139 hhcurveto
          -33 callsubr
          96 69 42 62 40 hvcurveto
          -57 26 57 -35 76 hhcurveto
          -365 419 rmoveto
          131 63 -101 -92 -7 0 -8 -1 -7 hvcurveto
          -1 -4 0 -3 -1 -3 -5 -30 -11 -29 146 callsubr
          endchar
        </CharString>
        <CharString name="dvB_BH_RA">
          627 323 530 rmoveto
          131 63 -101 -92 -5 0 -5 -1 -5 hvcurveto
          -5 -1 -5 -6 vvcurveto
          -5 -30 -12 -30 146 callsubr
          364 39 rmoveto
          -67 -49 42 65 67 52 42 74 hvcurveto
          103 -72 262 callgsubr
          373 -185 rmoveto
          58 -96 callgsubr
          -202 -286 -198 88 hlineto
          123 -48 84 -116 -21 -19 -3 -6 -16 vhcurveto
          -670 -54 688 hlineto
          5 12 12 2 16 hhcurveto
          72 31 -55 -87 hvcurveto
          -97 -103 vlineto
          -58 -49 -17 -33 -33 hvcurveto
          90 -24 -75 83 -138 hhcurveto
          -33 callsubr
          100 71 46 66 39 hvcurveto
          -49 28 56 -30 72 hhcurveto
          105 66 74 127 hvcurveto
          68 198 -122 vlineto
          -357 -349 rlineto
          73 hlineto
          287 288 rlineto
          endchar
        </CharString>
        <CharString name="dvB_DA">
          447 970 -11 rmoveto
          -51 callsubr
          -1110 -54 894 274 callsubr
          -104 -92 -39 -81 -44 hvcurveto
          71 -34 -72 58 -115 hhcurveto
          -33 callsubr
          105 74 51 72 38 hvcurveto
          -73 35 72 -41 91 hhcurveto
          77 64 35 52 27 hvcurveto
          -206 vlineto
          -582 157 -18 callgsubr
        </CharString>
        <CharString name="dvB_DHA">
          519 192 callgsubr
          400 -43 rmoveto
          107 83 51 82 38 hvcurveto
          -236 217 callsubr
          -371 vlineto
          -126 -94 -86 -120 -91 -73 39 85 67 47 49 100 vhcurveto
          15 callgsubr
          93 70 43 66 39 hvcurveto
          -69 31 78 -36 93 hhcurveto
          endchar
        </CharString>
        <CharString name="dvB_DH_VA">
          958 192 callgsubr
          1125 540 rmoveto
          140 54 -633 -54 430 197 callgsubr
          -128 -97 -87 -134 -5 hvcurveto
          -1 vlineto
          -134 -17 -79 -57 -118 hhcurveto
          -91 -79 37 87 67 47 49 100 hvcurveto
          15 callgsubr
          92 71 43 65 39 hvcurveto
          -69 31 80 -35 101 hhcurveto
          126 77 54 96 34 hvcurveto
          300 callsubr
          63 vlineto
          -246 156 -105 callsubr
          endchar
        </CharString>
        <CharString name="dvB_JA">
          657 325 33 callgsubr
          825 -146 rmoveto
          -96 callgsubr
          -1320 -54 1115 -184 -272 -167 vlineto
          17 callgsubr
          112 209 -447 vlineto
          -763 530 -75 callsubr
          endchar
        </CharString>
        <CharString name="dvB_JHA">
          692 325 146 rmoveto
          -104 -92 70 119 50 14 41 24 32 hvcurveto
          290 -261 rlineto
          -31 -30 -44 -20 -58 hhcurveto
          379 174 rmoveto
          -65 -57 24 68 78 75 16 62 hvcurveto
          190 180 213 -366 hlineto
          -320 vmoveto
          172 callgsubr
          -1354 -54 876 -133 -145 hlineto
          322 callsubr
          hvcurveto
          -47 vlineto
          -49 -12 -53 -30 -42 vhcurveto
          -288 260 rlineto
          32 35 48 17 53 hhcurveto
          31 27 -6 -8 25 hvcurveto
          47 vlineto
          8 -26 -28 5 -32 hhcurveto
          -33 callsubr
          141 78 97 121 15 hvcurveto
          32 -30 48 -13 50 -1 rrcurveto
          72 hlineto
          101 54 -46 -74 -58 -39 -51 -92 -105 -53 60 68 -11 hvcurveto
          -55 -247 59 164 hlineto
          -25 13 48 -69 120 hhcurveto
          119 55 68 83 62 -26 40 -37 24 hvcurveto
          211 -1 rlineto
          endchar
        </CharString>
        <CharString name="dvB_J_YA">
          1114 323 530 -39 callgsubr
          1008 28 rmoveto
          -133 -79 145 callgsubr
          -1776 -54 1293 -75 vlineto
          -111 -75 -32 -112 vhcurveto
          -263 -133 hlineto
          17 callgsubr
          79 181 vlineto
          -179 3 95 -116 166 hhcurveto
          113 162 callgsubr
          hvcurveto
          -237 vlineto
          endchar
        </CharString>
        <CharString name="dvB_JxA">
          666 1150 172 callsubr
          -1320 -54 1115 -184 -272 -167 vlineto
          17 callgsubr
          112 209 -447 vlineto
          -391 163 callsubr
          -370 185 -18 callgsubr
        </CharString>
        <CharString name="dvB_LA">
          732 1030 79 rmoveto
          -62 callsubr
          -1395 -54 1072 48 callgsubr
          -78 -60 -37 -64 -32 hvcurveto
          72 -34 -72 58 -116 hhcurveto
          -33 callsubr
          101 72 47 67 39 hvcurveto
          -80 31 70 -54 106 hhcurveto
          91 callgsubr
          98 92 -90 callgsubr
          -705 67 -18 callgsubr
        </CharString>
        <CharString name="dvB_L_YA">
          1245 325 33 callgsubr
          1140 28 44 callgsubr
          -1908 -54 1425 -90 vlineto
          -117 -63 -42 -96 -6 vhcurveto
          64 -21 -58 53 -88 hhcurveto
          -116 -50 -80 -73 -16 hvcurveto
          -69 callsubr
          -78 -60 -37 -64 -32 hvcurveto
          72 -34 -72 58 -116 hhcurveto
          -33 callsubr
          101 72 47 67 39 hvcurveto
          -80 31 70 -54 106 hhcurveto
          91 callgsubr
          98 92 144 callgsubr
          -1352 530 -75 callsubr
          endchar
        </CharString>
        <CharString name="dvB_NA">
          626 715 185 -105 callgsubr
          404 -185 rmoveto
          -96 callgsubr
          -1289 -54 1084 220 callgsubr
          -72 -61 -27 -49 -36 hvcurveto
          80 -31 -74 67 -124 hhcurveto
          -33 callsubr
          105 74 50 72 37 hvcurveto
          -57 33 64 -34 77 253 callgsubr
          -730 33 callgsubr
          -2 384 rmoveto
          130 63 -99 -93 1 hvcurveto
          -1 -6 0 -6 -8 vvcurveto
          -3 -34 -12 -35 -22 -29 -289 261 rcurveline
          32 35 47 17 51 hhcurveto
          endchar
        </CharString>
        <CharString name="dvB_R">
          -184 120 callsubr
          598 54 -598 hlineto
          353 -641 rmoveto
          16 16 1 3 15 hvcurveto
          -166 -154 rlineto
          68 hlineto
          207 200 rlineto
          57 44 31 70 76 vvcurveto
          111 -75 127 -171 -33 callsubr
          vhcurveto
          -1 431 -39 callgsubr
          endchar
        </CharString>
        <CharString name="dvB_RA">
          84 477 160 rmoveto
          17 17 12 17 10 19 rrcurveto
          -213 62 -47 callsubr
          -747 -54 545 -228 vlineto
          182 callgsubr
          -134 -106 -93 -146 326 callsubr
          hvcurveto
          -168 -155 rlineto
          70 hlineto
          72 582 -19 callsubr
        </CharString>
        <CharString name="dvB_SA">
          640 323 530 -39 callgsubr
          531 442 208 callsubr
          -49 -59 -80 -88 -41 66 91 vhcurveto
          160 490 -363 -28 callgsubr
          -1304 -54 822 -98 vlineto
          -108 -63 -69 -115 vhcurveto
          -58 hlineto
          88 -25 -76 78 -134 hhcurveto
          -33 callsubr
          90 67 37 56 41 hvcurveto
          -118 5 62 -83 121 hhcurveto
          118 72 77 120 hvcurveto
          endchar
        </CharString>
        <CharString name="dvB_SHA">
          620 723 -8 rmoveto
          118 346 callgsubr
          -49 -60 -82 -98 -43 69 92 vhcurveto
          120 104 vlineto
          138 105 72 141 133 -82 75 -122 -22 -20 -3 -6 -18 hvcurveto
          -693 -54 705 hlineto
          263 callsubr
          -101 hlineto
          98 -17 -76 96 -149 hhcurveto
          -33 callsubr
          90 68 37 57 41 hvcurveto
          -122 6 69 -79 125 hhcurveto
          -400 538 -39 callgsubr
          723 -146 rmoveto
          65 -47 callsubr
          -205 hlineto
          endchar
        </CharString>
        <CharString name="dvB_TA">
          521 1014 172 callsubr
          -1184 -54 980 272 callsubr
          -103 -85 -29 -63 -49 hvcurveto
          89 -25 -76 81 -136 hhcurveto
          -33 callsubr
          86 65 34 52 41 hvcurveto
          -121 25 95 -62 134 hhcurveto
          226 callsubr
          hlineto
          -626 146 -18 callgsubr
        </CharString>
        <CharString name="dvB_VA">
          514 762 156 39 callsubr
          -1177 -54 974 -27 callsubr
          -92 -76 -45 -74 -37 hvcurveto
          70 -35 -71 56 -114 hhcurveto
          -33 callsubr
          106 75 52 74 37 hvcurveto
          -76 37 75 -45 93 hhcurveto
          101 callgsubr
          -685 -156 -39 callgsubr
          endchar
        </CharString>
        <CharString name="dvB_YA">
          560 1062 172 callsubr
          -1232 -54 748 -75 vlineto
          -123 -69 -40 -105 -3 vhcurveto
          73 -34 -72 59 -117 hhcurveto
          -33 callsubr
          115 78 60 83 33 hvcurveto
          -77 41 78 -46 108 hhcurveto
          182 callsubr
          hvcurveto
          -238 vlineto
          -674 33 callgsubr
          464 28 70 callsubr
        </CharString>
        <CharString name="dvC">
          -147 50 480 278 callsubr
          146 98 107 134 -3 vhcurveto
          221 callgsubr
          -79 155 rmoveto
          638 54 -638 hlineto
          endchar
        </CharString>
        <CharString name="dvCA">
          125 120 callsubr
          583 -341 235 callsubr
          -51 198 hlineto
          -67 -32 -38 -63 -78 vvcurveto
          -129 98 -74 116 89 72 45 68 36 vhcurveto
          -217 -28 callgsubr
          -788 vlineto
          endchar
        </CharString>
        <CharString name="dvCH">
          128 callgsubr
          -144 130 -75 190 190 callsubr
          68 callsubr
        </CharString>
        <CharString name="dvCHA">
          128 callgsubr
          -144 130 -75 190 301 callsubr
          vhcurveto
          342 callgsubr
          -873 vlineto
          426 -656 -78 callsubr
          endchar
        </CharString>
        <CharString name="dvCH_R">
          77 callsubr
          68 callsubr
        </CharString>
        <CharString name="dvCH_RA">
          77 callsubr
          125 -67 68 -83 13 vhcurveto
          342 callgsubr
          -873 vlineto
          426 -656 -78 callsubr
          endchar
        </CharString>
        <CharString name="dvCH_R_YA">
          0 callsubr
          -412 -300 rmoveto
          69 hlineto
          -156 162 134 23 97 74 35 115 rlinecurve
          -81 42 77 -48 110 hhcurveto
          109 71 53 64 34 hvcurveto
          -236 93 callgsubr
          -1427 -54 131 -114 vlineto
          72 callgsubr
          -135 114 -74 170 -9 vhcurveto
          -149 -156 rlineto
          68 hlineto
          146 154 rlineto
          endchar
        </CharString>
        <CharString name="dvCH_YA">
          0 callsubr
          414 322 callgsubr
          -1427 -54 131 -114 vlineto
          72 callgsubr
          -144 130 -75 190 178 134 80 139 42 vhcurveto
          -81 42 77 -48 110 hhcurveto
          109 71 53 64 34 hvcurveto
          -236 64 329 callsubr
        </CharString>
        <CharString name="dvC_CA">
          531 368 158 rmoveto
          -88 -76 56 102 207 callgsubr
          276 hlineto
          -60 -29 -36 -53 -8 -66 rrcurveto
          -94 -22 -53 -80 -107 hhcurveto
          797 528 rmoveto
          54 -1194 -54 989 234 callgsubr
          -767 -51 291 callgsubr
          -132 97 -71 118 103 62 57 78 36 vhcurveto
          -87 28 82 -48 94 hhcurveto
          89 72 45 68 36 hvcurveto
          -217 64 329 callsubr
        </CharString>
        <CharString name="dvC_CHA">
          676 863 84 -22 callgsubr
          -109 28 120 -57 165 hhcurveto
          190 callsubr
          hvcurveto
          endchar
        </CharString>
        <CharString name="dvC_CH_VA">
          676 854 -264 rmoveto
          -85 -64 53 92 88 59 57 102 3 hvcurveto
          0 vlineto
          49 49 7 13 43 hvcurveto
          -167 vlineto
          -66 -47 -80 -106 vhcurveto
          9 348 -22 callgsubr
          21 -82 72 -52 104 -21 rrcurveto
          -61 -28 -42 -60 -79 vvcurveto
          -114 82 -74 115 83 55 39 54 28 vhcurveto
          -155 57 448 vlineto
          105 51 65 95 129 vvcurveto
          endchar
        </CharString>
        <CharString name="dvC_MA">
          643 1071 451 76 callsubr
          -370 -520 -94 callsubr
          575 520 rmoveto
          54 -1305 -54 843 351 callgsubr
          -100 -75 -55 -96 -9 hvcurveto
          -79 -18 -54 -63 -94 hhcurveto
          -86 -71 56 102 25 callgsubr
          -131 93 -72 119 88 62 41 64 35 vhcurveto
          -61 25 59 -37 77 hhcurveto
          92 callsubr
        </CharString>
        <CharString name="dvC_NA">
          645 728 185 -105 callgsubr
          545 501 rmoveto
          54 -1302 -54 1097 220 callgsubr
          -6 callgsubr
          hvcurveto
          -3 0 -3 -2 vvcurveto
          -80 -11 -57 -68 -96 hhcurveto
          -86 -75 55 100 25 callgsubr
          -130 99 -71 118 92 67 48 72 32 vhcurveto
          -60 32 65 -36 79 18 callgsubr
          hlineto
          endchar
        </CharString>
        <CharString name="dvC_R">
          -147 120 callsubr
          638 54 -638 hlineto
          79 -260 278 callsubr
          13 13 1 2 12 vhcurveto
          -161 -153 rlineto
          71 hlineto
          205 199 57 44 33 69 -2 79 rlinecurve
          221 callgsubr
          endchar
        </CharString>
        <CharString name="dvC_RA">
          125 120 callsubr
          583 -341 hlineto
          -70 -35 -61 -56 -32 vhcurveto
          -1 hlineto
          -2 -2 rlineto
          -14 -26 -29 -8 -32 hhcurveto
          -91 -78 56 102 25 callgsubr
          -128 98 -73 116 9 9 0 1 8 vhcurveto
          -162 -153 rlineto
          71 hlineto
          205 198 24 18 19 22 14 26 rlinecurve
          -218 -28 callgsubr
          -788 vlineto
          endchar
        </CharString>
        <CharString name="dvC_YA">
          611 830 174 8 callsubr
          -1273 -54 790 251 callsubr
          -7 -6 vvcurveto
          -7 -162 -85 -60 -95 -1 rrcurveto
          -90 -74 56 102 25 callgsubr
          -132 96 -71 125 97 84 48 109 36 vhcurveto
          -89 40 81 -53 116 2 callsubr
          64 329 callsubr
        </CharString>
        <CharString name="dvCandrabindu">
          -605 -147 820 28 callsubr
        </CharString>
        <CharString name="dvD">
          3 583 -290 -15 callsubr
          -493 783 3 callsubr
          endchar
        </CharString>
        <CharString name="dvDA">
          4 -29 686 3 callsubr
          endchar
        </CharString>
        <CharString name="dvDA_mvR">
          -23 308 12 rmoveto
          140 101 66 147 1 hvcurveto
          -55 hlineto
          -110 -80 -54 -104 -94 -65 42 76 77 65 29 70 vhcurveto
          61 49 -59 hlineto
          -82 -56 36 60 71 63 23 71 hvcurveto
          180 162 148 54 -642 -54 434 -115 -142 hlineto
          -95 -81 -37 -98 -79 70 -41 56 -6 hvcurveto
          -3 vlineto
          -48 -4 -78 -35 -94 vvcurveto
          -106 92 -56 129 vhcurveto
          endchar
        </CharString>
        <CharString name="dvDD">
          -28 404 -291 -15 callsubr
          -314 784 -21 callsubr
          endchar
        </CharString>
        <CharString name="dvDDA">
          -28 -29 686 -21 callsubr
          endchar
        </CharString>
        <CharString name="dvDDH">
          32 440 -266 -15 callsubr
          -350 759 rmoveto
          -52 callgsubr
          89 170 190 54 -695 hlineto
          endchar
        </CharString>
        <CharString name="dvDDHA">
          32 -29 686 rmoveto
          -52 callgsubr
          89 170 190 54 -695 hlineto
          endchar
        </CharString>
        <CharString name="dvDDH_DDHA">
          66 120 callsubr
          451 -109 -73 hlineto
          -149 -114 -76 -155 -108 62 -73 97 -33 hvcurveto
          -94 -30 -65 -70 -113 vvcurveto
          -149 119 -83 166 151 85 66 96 82 -58 60 -103 -91 -61 265 callsubr
          42 32 62 71 38 -42 -56 -68 -70 -48 -111 -140 -87 70 117 131 105 62 124 vhcurveto
          0 1 vlineto
          143 89 65 96 83 -56 59 -105 -91 -61 -44 -76 -8 2 -11 1 -8 hvcurveto
          46 hlineto
          -2 5 -1 8 6 vvcurveto
          51 42 32 62 71 38 -41 -57 -68 -70 -48 -111 309 callgsubr
          114 152 222 54 -729 hlineto
          endchar
        </CharString>
        <CharString name="dvDDH_R">
          32 445 -345 -15 callsubr
          -355 838 14 callsubr
        </CharString>
        <CharString name="dvDDH_RA">
          32 -29 686 14 callsubr
        </CharString>
        <CharString name="dvDDH_VA">
          32 120 callsubr
          443 -109 -65 hlineto
          -149 -114 -76 -155 -107 62 -76 92 -31 hvcurveto
          -72 -21 -52 -58 -89 vvcurveto
          -106 77 -69 106 77 52 39 52 27 vhcurveto
          -162 55 425 vlineto
          52 28 29 47 58 vvcurveto
          81 -54 58 -94 -89 -60 265 callsubr
          41 32 60 60 37 -40 -55 -70 -63 -49 -103 309 callgsubr
          107 152 195 54 -695 hlineto
          341 -900 rmoveto
          -76 -60 48 82 95 66 47 128 31 29 3 7 25 hvcurveto
          -134 vlineto
          -68 -43 -80 -100 vhcurveto
          endchar
        </CharString>
        <CharString name="dvDDH_YA">
          650 1081 hmoveto
          62 -96 callgsubr
          -1313 -54 -52 callgsubr
          325 hlineto
          60 81 -9 -84 -62 -57 -23 -88 4 hvcurveto
          -23 hlineto
          -1 -10 0 -11 -10 vvcurveto
          -144 74 -91 141 94 58 45 66 30 vhcurveto
          -171 -61 rmoveto
          -112 -54 70 104 hvcurveto
          3 0 4 2 vvcurveto
          100 -1 71 33 86 vvcurveto
          106 -89 28 -105 vhcurveto
          -245 125 605 -357 hlineto
          -119 -60 -84 -111 vhcurveto
          endchar
        </CharString>
        <CharString name="dvDDHxA">
          32 -29 686 rmoveto
          -52 callgsubr
          89 170 190 54 -695 hlineto
          373 -905 rmoveto
          -101 callgsubr
          endchar
        </CharString>
        <CharString name="dvDD_DDA">
          -12 120 callsubr
          428 -111 -120 hlineto
          -91 -80 -30 -93 -94 86 -23 110 86 75 -13 -82 -58 -43 -36 -91 -120 -58 55 66 -1 hvcurveto
          -61 hlineto
          -67 47 -51 66 -22 vhcurveto
          -57 -14 -39 -33 -60 vvcurveto
          -94 86 -20 111 90 70 -14 -82 -58 -43 -35 -91 -120 -58 53 67 -1 vhcurveto
          -61 hlineto
          -106 2 100 -59 138 hhcurveto
          128 66 52 87 110 -86 28 -127 -78 -67 7 65 58 51 22 109 130 68 53 86 303 callgsubr
          hvcurveto
          168 156 163 54 -651 hlineto
          endchar
        </CharString>
        <CharString name="dvDD_DDHA">
          -1 -17 686 rmoveto
          413 -111 -121 hlineto
          -89 -81 -30 -93 -94 86 -23 110 86 74 -13 -82 -58 -43 -36 -90 -120 -58 55 66 -1 hvcurveto
          -61 hlineto
          -73 55 -53 74 -19 vhcurveto
          -93 -26 -65 -69 -115 vvcurveto
          -145 113 -79 156 139 79 66 95 83 -54 59 -99 -87 -57 -44 -75 -8 1 -11 2 -9 vhcurveto
          45 hlineto
          -1 6 -1 8 6 vvcurveto
          51 39 32 57 67 35 -42 -56 -69 -64 -47 -102 -132 -81 67 111 127 99 60 119 3 vhcurveto
          127 5 63 49 85 vvcurveto
          303 callgsubr
          vhcurveto
          169 156 147 54 -621 hlineto
          endchar
        </CharString>
        <CharString name="dvDD_R">
          -28 395 -370 -15 callsubr
          -305 863 21 callgsubr
        </CharString>
        <CharString name="dvDD_RA">
          -28 -29 686 21 callgsubr
        </CharString>
        <CharString name="dvDD_VA">
          0 286 -166 rmoveto
          -76 -59 47 81 90 66 44 111 38 32 5 8 27 hvcurveto
          -147 vlineto
          -57 -43 -71 -96 vhcurveto
          -315 852 rmoveto
          425 -111 -121 hlineto
          -89 -81 -30 -93 -103 98 -16 94 90 74 -14 -83 -59 -43 -35 -90 -120 -58 54 65 -1 hvcurveto
          -61 hlineto
          -70 52 -55 74 -22 vhcurveto
          -68 -20 -51 -55 -82 vvcurveto
          -105 76 -65 103 69 53 26 49 29 vhcurveto
          -144 55 421 vlineto
          28 24 14 33 40 vvcurveto
          108 -87 30 -117 2 vhcurveto
          -82 1 -69 4 68 vvcurveto
          68 66 13 55 vhcurveto
          169 156 177 54 -663 hlineto
          endchar
        </CharString>
        <CharString name="dvDD_YA">
          560 990 hmoveto
          93 callgsubr
          -1223 -54 426 -133 -125 94 callsubr
          325 hlineto
          62 85 -8 -83 -63 -56 -18 -87 hvcurveto
          -25 hlineto
          -1 -11 0 -10 -11 vvcurveto
          -139 74 -87 141 93 57 47 69 31 vhcurveto
          -170 -66 rmoveto
          -111 -56 67 99 hvcurveto
          3 0 3 4 vvcurveto
          105 1 67 34 81 vvcurveto
          105 -92 29 -109 vhcurveto
          -165 134 531 -342 hlineto
          -128 -59 -90 -111 vhcurveto
          endchar
        </CharString>
        <CharString name="dvDDxA">
          -28 -29 686 -21 callsubr
          341 -931 rmoveto
          -101 callgsubr
          endchar
        </CharString>
        <CharString name="dvDH">
          -177 318 103 rmoveto
          168 105 94 135 hvcurveto
          58 callgsubr
        </CharString>
        <CharString name="dvDHA">
          102 307 103 rmoveto
          107 83 51 82 38 hvcurveto
          -236 217 callsubr
          -371 vlineto
          -126 -94 -86 -120 -91 -73 39 85 147 callgsubr
          -100 -67 -68 -94 20 callgsubr
          -113 95 -59 120 vhcurveto
          endchar
        </CharString>
        <CharString name="dvDH_MA">
          646 1281 686 rmoveto
          54 -742 -54 279 -235 -102 vlineto
          -101 -76 -56 -98 -7 hvcurveto
          -2 -7 rlineto
          -75 -12 -71 -58 -124 hhcurveto
          -87 88 callsubr
          96 -57 126 116 78 39 61 39 vhcurveto
          -57 27 56 -35 76 hhcurveto
          109 -31 callgsubr
          198 -398 64 686 vlineto
          -435 -520 rmoveto
          -66 -48 331 callgsubr
          -42 -53 -71 vhcurveto
          371 285 258 callgsubr
          endchar
        </CharString>
        <CharString name="dvDH_NA">
          637 1284 686 rmoveto
          54 -745 -54 541 -180 -336 vlineto
          -115 -84 -68 -114 -4 hvcurveto
          -1 vlineto
          -110 -14 -80 -56 -120 -2 callsubr
          99 -57 126 119 84 49 87 36 vhcurveto
          -68 29 67 -41 86 hhcurveto
          109 81 312 callsubr
          64 686 hlineto
          -405 -501 rmoveto
          -83 -57 54 -73 callgsubr
          -78 321 callsubr
          endchar
        </CharString>
        <CharString name="dvDH_N_YA">
          1112 1746 686 rmoveto
          54 -1205 -54 722 -75 vlineto
          -114 -76 -30 -112 vhcurveto
          -334 hlineto
          -112 -83 -65 -109 -7 hvcurveto
          -90 -21 -71 -46 -120 -2 callsubr
          99 -57 126 115 78 39 72 38 vhcurveto
          -77 25 72 -47 91 hhcurveto
          108 81 189 callsubr
          hvcurveto
          199 hlineto
          330 callsubr
          162 callgsubr
          hvcurveto
          -237 64 686 vlineto
          -869 -541 rmoveto
          -83 -57 55 78 121 callgsubr
          80 57 -56 -78 -79 -57 -55 -80 hvcurveto
          596 29 rmoveto
          -135 -79 95 148 hvcurveto
          126 4 81 53 127 128 callsubr
          endchar
        </CharString>
        <CharString name="dvDH_R">
          -177 318 103 rmoveto
          27 25 2 5 24 hvcurveto
          -184 -172 rlineto
          72 hlineto
          225 220 rlineto
          54 41 30 61 72 vvcurveto
          58 callgsubr
        </CharString>
        <CharString name="dvDH_RA">
          102 307 104 rmoveto
          17 16 1 3 16 hvcurveto
          -182 -170 rlineto
          73 hlineto
          242 233 rlineto
          -1 hlineto
          19 19 16 22 12 24 rrcurveto
          -236 217 callsubr
          -371 vlineto
          -126 -94 -86 -120 -91 -73 39 85 147 callgsubr
          -100 -67 -68 -94 20 callgsubr
          -113 95 -58 120 vhcurveto
          endchar
        </CharString>
        <CharString name="dvDH_VA">
          496 1032 686 rmoveto
          140 54 -633 -54 430 197 callgsubr
          -128 -97 -87 -134 -5 hvcurveto
          -1 vlineto
          -134 -17 -79 -57 -118 -2 callsubr
          96 -57 129 126 77 54 96 34 vhcurveto
          -93 31 82 -56 104 hhcurveto
          249 callsubr
          hvcurveto
          -221 63 vlineto
          -246 156 -105 callsubr
          endchar
        </CharString>
        <CharString name="dvDH_YA">
          582 318 103 -48 callgsubr
          -100 -67 -68 -94 20 callgsubr
          -115 99 -57 127 vhcurveto
          485 71 rmoveto
          -134 -79 -13 callsubr
          endchar
        </CharString>
        <CharString name="dvD_BA">
          162 callsubr
          75 59 36 62 28 vhcurveto
          113 callsubr
          rlineto
          -37 -23 -41 -29 -60 166 callsubr
        </CharString>
        <CharString name="dvD_BHA">
          745 583 -290 -15 callsubr
          -493 783 3 callsubr
          857 -574 -63 callsubr
          175 -398 -28 callgsubr
          -205 -289 -175 28 callgsubr
        </CharString>
        <CharString name="dvD_B_RA">
          162 callsubr
          vhcurveto
          4 4 0 4 hhcurveto
          -134 -125 rlineto
          68 hlineto
          173 165 18 15 15 20 10 23 rlinecurve
          113 callsubr
          -14 -22 -20 -19 -26 -12 rlinecurve
          -2 hlineto
          -2 -2 rlineto
          -7 -17 -20 -4 -23 166 callsubr
        </CharString>
        <CharString name="dvD_DA">
          -65 420 -47 rmoveto
          62 276 -54 hlineto
          -104 -64 -57 -100 -87 -57 42 77 62 43 44 87 vhcurveto
          93 48 -92 hlineto
          -91 -45 45 54 77 72 25 87 hvcurveto
          141 144 154 54 -609 -54 392 -99 hlineto
          1 -31 -32 0 -31 hhcurveto
          -113 -93 -35 -108 -74 53 -43 67 -11 hvcurveto
          -2 vlineto
          -66 -10 -51 -48 -78 vvcurveto
          -100 78 -60 110 98 56 45 49 23 vhcurveto
          endchar
        </CharString>
        <CharString name="dvD_DHA">
          292 120 callsubr
          737 245 callsubr
          -94 41 -69 66 -36 hvcurveto
          -98 -21 -71 -56 -86 hhcurveto
          264 callsubr
          63 45 56 108 -7 hvcurveto
          53 vlineto
          -150 11 -66 -78 -89 vvcurveto
          -93 64 -44 64 -14 vhcurveto
          75 callgsubr
        </CharString>
        <CharString name="dvD_GA">
          212 callsubr
          -134 vlineto
          -51 -19 -56 -72 -68 -22 54 308 callgsubr
          -68 99 107 42 73 87 vhcurveto
          128 vlineto
          69 3 56 33 27 45 rrcurveto
          -444 59 181 callsubr
        </CharString>
        <CharString name="dvD_GHA">
          292 289 -19 rmoveto
          264 callsubr
          59 41 53 92 41 43 -11 -25 44 hvcurveto
          -25 -35 -15 -46 -55 vvcurveto
          -94 41 -69 66 -36 vhcurveto
          -98 -21 -71 -56 -86 hhcurveto
          -318 705 rmoveto
          737 274 callsubr
          -75 -68 -20 -41 -49 hvcurveto
          34 -50 -61 20 -59 hhcurveto
          -130 -58 -74 -84 -93 64 -44 64 -14 hvcurveto
          75 callgsubr
        </CharString>
        <CharString name="dvD_G_RA">
          212 callsubr
          -68 vlineto
          -52 -19 -55 -72 -68 -22 53 308 callgsubr
          -67 99 107 42 72 88 vhcurveto
          62 vlineto
          69 3 56 33 27 45 rrcurveto
          -195 vlineto
          -302 -301 rlineto
          66 hlineto
          238 243 rlineto
          -191 57 181 callsubr
        </CharString>
        <CharString name="dvD_MA">
          199 283 -102 rmoveto
          -58 -42 39 57 64 47 37 64 hvcurveto
          88 -71 hlineto
          -80 -37 -46 -62 vhcurveto
          158 251 rmoveto
          161 -170 vlineto
          -76 -56 33 66 76 55 28 74 hvcurveto
          159 173 200 -537 hlineto
          -656 537 rmoveto
          394 -118 -103 hlineto
          -105 -81 -42 -116 -100 80 -53 108 hvcurveto
          118 -108 -85 hlineto
          -98 -73 -51 -102 -91 62 -60 96 99 58 64 121 hvcurveto
          65 186 -313 64 904 142 54 -862 vlineto
          endchar
        </CharString>
        <CharString name="dvD_NA">
          765 583 -290 -15 callsubr
          389 282 -105 callgsubr
          -326 -196 rmoveto
          251 callgsubr
          -105 -86 -43 -70 -106 -67 68 105 120 93 60 113 vhcurveto
          238 callsubr
          708 263 callgsubr
          hlineto
          -90 callsubr
          217 -452 -28 callgsubr
          -1427 -54 310 callsubr
          61 callgsubr
          hvcurveto
          -206 vlineto
          endchar
        </CharString>
        <CharString name="dvD_R">
          3 582 -290 -15 callsubr
          -492 783 304 callsubr
          195 callgsubr
          hvcurveto
          -174 -164 rlineto
          71 hlineto
          223 212 rlineto
          -20 callgsubr
          -666 hlineto
          endchar
        </CharString>
        <CharString name="dvD_RA">
          3 -29 686 304 callsubr
          195 callgsubr
          hvcurveto
          -174 -164 rlineto
          71 hlineto
          223 212 rlineto
          -20 callgsubr
          -666 hlineto
          endchar
        </CharString>
        <CharString name="dvD_VA">
          -5 120 callsubr
          442 -118 -90 hlineto
          -144 -98 -62 -130 -85 47 -61 71 -24 hvcurveto
          240 callsubr
          59 203 callsubr
          -658 hlineto
          332 -818 201 callsubr
          endchar
        </CharString>
        <CharString name="dvD_YA">
          92 288 94 rmoveto
          -96 -69 40 75 77 62 28 82 hvcurveto
          67 50 -65 hlineto
          -80 -66 28 70 77 76 20 69 hvcurveto
          25 -2 hlineto
          1 2 rlineto
          60 127 169 -354 hlineto
          -168 -99 -70 -136 vhcurveto
          -295 592 rmoveto
          300 -98 hlineto
          1 -19 -19 0 -20 hhcurveto
          -83 -93 -28 -100 -88 77 -28 47 -6 hvcurveto
          -3 vlineto
          -46 -4 -78 -30 -98 vvcurveto
          -104 92 -56 124 124 86 46 95 38 vhcurveto
          -185 -36 callsubr
          -734 vlineto
          endchar
        </CharString>
        <CharString name="dvE">
          47 120 callsubr
          216 callgsubr
          142 84 85 144 vhcurveto
          46 callsubr
          -710 vlineto
          endchar
        </CharString>
        <CharString name="dvEcandra">
          47 120 callsubr
          216 callgsubr
          142 84 85 144 vhcurveto
          46 callsubr
          -710 vlineto
          358 103 21 callsubr
        </CharString>
        <CharString name="dvEight">
          27 callsubr
        </CharString>
        <CharString name="dvEyelash">
          -327 366 398 rmoveto
          -21 40 rlineto
          -5 -18 -21 -6 -36 hhcurveto
          -84 -94 35 108 -1 hvcurveto
          -61 hlineto
          -143 2 121 -48 109 hhcurveto
          42 41 8 11 21 hvcurveto
          -395 288 rmoveto
          374 54 -374 hlineto
          endchar
        </CharString>
        <CharString name="dvEyelash_HA">
          145 689 58 -81 callgsubr
          -808 -54 602 151 callsubr
          -34 12 -27 18 -21 hvcurveto
          -4 -15 -16 -2 -20 hhcurveto
          -73 -79 35 102 hvcurveto
          -60 hlineto
          -135 1 105 -54 96 hhcurveto
          51 33 12 11 23 hvcurveto
          4 -2 4 -2 5 -2 rrcurveto
          107 callgsubr
        </CharString>
        <CharString name="dvEyelash_YA">
          307 527 174 rmoveto
          -92 callsubr
          274 -174 183 callgsubr
          -970 -54 487 -75 vlineto
          -128 -75 -38 -112 vhcurveto
          -82 1 -95 35 105 vvcurveto
          -60 hlineto
          1 -135 111 -51 106 -5 rrcurveto
          -168 2 95 -108 166 122 callsubr
        </CharString>
        <CharString name="dvFive">
          66 callgsubr
        </CharString>
        <CharString name="dvFour">
          157 callgsubr
        </CharString>
        <CharString name="dvG">
          -143 120 callsubr
          325 -284 hlineto
          -103 callsubr
          131 54 -520 vlineto
          endchar
        </CharString>
        <CharString name="dvGA">
          122 552 hmoveto
          -36 callsubr
          -785 -54 325 -284 hlineto
          -103 callsubr
          192 vlineto
          endchar
        </CharString>
        <CharString name="dvGH">
          179 callsubr
          160 107 109 143 vhcurveto
          158 callsubr
        </CharString>
        <CharString name="dvGHA">
          109 326 117 callgsubr
          46 84 hvcurveto
          82 228 callgsubr
          -355 524 rmoveto
          134 -84 hlineto
          188 callsubr
          65 -47 callsubr
          -772 vlineto
          endchar
        </CharString>
        <CharString name="dvGH_MA">
          619 1048 451 76 callsubr
          -370 -520 -94 callsubr
          -369 -4 334 callsubr
          61 53 -56 339 callgsubr
          622 351 callgsubr
          -91 -70 -45 -80 -19 hvcurveto
          0 vlineto
          -6 -23 rlineto
          -103 -28 -66 -38 -99 hhcurveto
          944 524 rmoveto
          54 -1282 148 callsubr
          89 -62 123 101 74 33 79 38 vhcurveto
          -67 23 61 -43 82 hhcurveto
          92 callsubr
        </CharString>
        <CharString name="dvGH_NA">
          615 704 185 -105 callgsubr
          -395 -23 334 callsubr
          47 53 -42 339 callgsubr
          875 220 callgsubr
          -107 -82 -59 -101 -13 hvcurveto
          -3 -10 rlineto
          -129 -32 -56 -45 -107 hhcurveto
          940 524 rmoveto
          54 -1278 148 callsubr
          88 -62 122 105 78 36 101 38 vhcurveto
          -72 27 70 -44 88 18 callgsubr
          hlineto
          endchar
        </CharString>
        <CharString name="dvGH_R">
          179 callsubr
          20 19 2 3 18 vhcurveto
          -180 -169 rlineto
          71 hlineto
          226 219 rlineto
          59 46 34 70 81 vvcurveto
          158 callsubr
        </CharString>
        <CharString name="dvGH_RA">
          109 326 117 callgsubr
          48 84 hvcurveto
          80 228 callgsubr
          -355 524 rmoveto
          134 -84 hlineto
          54 callsubr
          -120 95 -61 131 17 17 1 3 16 vhcurveto
          -182 -170 rlineto
          72 hlineto
          242 233 rlineto
          -1 hlineto
          18 17 15 19 11 22 rrcurveto
          -236 65 -47 callsubr
          -772 vlineto
          endchar
        </CharString>
        <CharString name="dvGH_YA">
          591 326 117 callgsubr
          46 84 hvcurveto
          82 572 -75 vlineto
          41 callsubr
          -17 1 -16 2 -16 vhcurveto
          -112 -5 -88 -78 -119 hhcurveto
          484 12 8 callsubr
          -1253 148 callsubr
          95 -62 144 114 87 55 84 41 vhcurveto
          -81 41 79 -48 110 2 callsubr
          64 329 callsubr
        </CharString>
        <CharString name="dvG_BA">
          514 945 hmoveto
          62 -47 callsubr
          -1176 -54 325 -284 hlineto
          -103 callsubr
          585 -228 vlineto
          182 callgsubr
          -134 -106 -93 -146 102 callgsubr
          hvcurveto
          -188 -67 26 callsubr
        </CharString>
        <CharString name="dvG_BHA">
          596 679 166 rmoveto
          -67 159 callsubr
          -70 vhcurveto
          -55 vmoveto
          109 -31 callgsubr
          174 -398 64 686 142 54 -206 -289 -174 91 vlineto
          123 -48 84 -116 -22 -19 -3 -6 -17 vhcurveto
          -658 -54 325 -284 hlineto
          -103 callsubr
          289 vlineto
          4 12 14 3 13 hhcurveto
          72 31 -56 -86 hvcurveto
          -100 -102 vlineto
          -107 -79 200 callgsubr
          106 hvcurveto
          endchar
        </CharString>
        <CharString name="dvG_BH_YA">
          1046 679 166 46 callgsubr
          -656 -54 325 -284 hlineto
          -103 callsubr
          194 vlineto
          180 callgsubr
          -102 132 callsubr
          106 hvcurveto
          587 63 6 callgsubr
          endchar
        </CharString>
        <CharString name="dvG_DA">
          433 956 -11 rmoveto
          -51 callsubr
          -1096 -54 325 -284 hlineto
          -103 callsubr
          491 -118 -82 vlineto
          -145 -121 -76 -158 61 callgsubr
          hvcurveto
          -206 vlineto
          endchar
        </CharString>
        <CharString name="dvG_DHA">
          526 729 103 rmoveto
          107 83 51 82 38 hvcurveto
          -236 217 callsubr
          -371 vlineto
          -126 -94 -86 -120 -91 -73 39 85 147 callgsubr
          -21 187 callgsubr
          -645 -54 325 -284 hlineto
          -103 callsubr
          179 vlineto
          -20 -27 -11 -34 -38 vvcurveto
          20 callgsubr
          -113 95 -59 120 vhcurveto
          endchar
        </CharString>
        <CharString name="dvG_DH_VA">
          961 1454 hmoveto
          42 callsubr
          -645 -54 325 -284 hlineto
          -103 callsubr
          179 vlineto
          -20 -27 -11 -34 -38 vvcurveto
          -98 64 -51 66 -15 vhcurveto
          -2 vlineto
          -61 -8 -63 -50 -88 90 callgsubr
        </CharString>
        <CharString name="dvG_DH_YA">
          1005 1225 174 rmoveto
          -134 -79 -13 callsubr
          -485 -71 -48 callgsubr
          -21 187 callgsubr
          -645 -54 325 -284 hlineto
          -103 callsubr
          179 vlineto
          -20 -27 -11 -34 -38 vvcurveto
          20 callgsubr
          -115 99 -57 127 vhcurveto
          endchar
        </CharString>
        <CharString name="dvG_GA">
          558 988 hmoveto
          -36 callsubr
          -1221 -54 325 -284 hlineto
          -103 callsubr
          372 -284 vlineto
          -103 callsubr
          192 vlineto
          endchar
        </CharString>
        <CharString name="dvG_GHA">
          527 745 117 callgsubr
          46 84 hvcurveto
          82 228 callgsubr
          277 -162 183 callgsubr
          -1191 -54 325 -284 vlineto
          -103 callsubr
          164 -84 vlineto
          188 callsubr
          vlineto
          endchar
        </CharString>
        <CharString name="dvG_JA">
          653 1146 295 callgsubr
          -1315 -54 325 -284 vlineto
          -103 callsubr
          722 -184 -272 -167 vlineto
          -81 callsubr
          210 -447 vlineto
          endchar
        </CharString>
        <CharString name="dvG_LA">
          725 1023 79 rmoveto
          -62 callsubr
          -1388 -54 325 -284 vlineto
          -103 callsubr
          676 -139 vlineto
          -97 -11 -42 -74 -16 -67 rrcurveto
          -2 hlineto
          72 -16 -48 81 -108 hhcurveto
          -124 -80 -88 -138 -138 79 -105 154 -75 callgsubr
          endchar
        </CharString>
        <CharString name="dvG_MA">
          610 1039 451 76 callsubr
          -370 -520 -94 callsubr
          434 -166 rmoveto
          -96 callgsubr
          -1273 -54 325 -284 vlineto
          -103 callsubr
          422 -23 callsubr
          197 -398 vlineto
          endchar
        </CharString>
        <CharString name="dvG_NA">
          613 702 185 -105 callgsubr
          404 -185 rmoveto
          -96 callgsubr
          -1276 -54 325 -284 vlineto
          -103 callsubr
          682 220 callgsubr
          -90 callsubr
          217 -452 hlineto
          endchar
        </CharString>
        <CharString name="dvG_NNA">
          676 712 248 rmoveto
          -47 callgsubr
          457 -248 rmoveto
          -96 callgsubr
          -1339 -54 325 -284 vlineto
          -103 callsubr
          170 -298 vlineto
          -14 callgsubr
          212 -686 vlineto
          endchar
        </CharString>
        <CharString name="dvG_N_YA">
          1076 701 145 rmoveto
          -34 callsubr
          -1740 -54 325 -284 vlineto
          -103 callsubr
          867 89 callsubr
        </CharString>
        <CharString name="dvG_R">
          88 callgsubr
          endchar
        </CharString>
        <CharString name="dvG_RA">
          79 callsubr
          endchar
        </CharString>
        <CharString name="dvG_R_YA">
          559 778 174 rmoveto
          -92 callsubr
          -12 -55 rmoveto
          114 74 227 callgsubr
          -1221 -54 325 -235 vlineto
          9 callsubr
          239 callgsubr
          -37 4 -34 9 -31 vhcurveto
          -325 -319 rlineto
          75 hlineto
          269 270 rlineto
          -83 41 79 -48 111 hhcurveto
          endchar
        </CharString>
        <CharString name="dvG_SA">
          630 845 588 -4 callgsubr
          -1293 -54 325 -284 vlineto
          -103 callsubr
          422 -74 callsubr
          endchar
        </CharString>
        <CharString name="dvG_VA">
          500 748 156 39 callsubr
          -1163 -54 325 -284 vlineto
          -103 callsubr
          571 80 callgsubr
        </CharString>
        <CharString name="dvG_YA">
          559 778 174 rmoveto
          -92 callsubr
          274 -174 183 callgsubr
          -1221 -54 325 -284 vlineto
          -103 callsubr
          349 -75 vlineto
          96 callgsubr
          vlineto
          endchar
        </CharString>
        <CharString name="dvGx">
          -143 120 callsubr
          325 -284 hlineto
          -103 callsubr
          131 54 -520 vlineto
          241 -685 rmoveto
          -101 callgsubr
          endchar
        </CharString>
        <CharString name="dvGxA">
          122 552 hmoveto
          -36 callsubr
          -785 -54 325 -284 hlineto
          -103 callsubr
          192 vlineto
          -340 -631 rmoveto
          -101 callgsubr
          endchar
        </CharString>
        <CharString name="dvGx_R">
          88 callgsubr
          124 -670 -15 callgsubr
          endchar
        </CharString>
        <CharString name="dvGx_RA">
          79 callsubr
          -458 -198 -15 callgsubr
          endchar
        </CharString>
        <CharString name="dvH">
          -19 525 58 -81 callgsubr
          -644 -54 438 307 callsubr
          hlineto
          -93 -70 -39 -87 298 callsubr
          hvcurveto
          47 callsubr
          -134 -438 -15 callsubr
          endchar
        </CharString>
        <CharString name="dvHA">
          -19 525 58 -81 callgsubr
          -644 -54 438 307 callsubr
          hlineto
          -93 -70 -39 -87 298 callsubr
          hvcurveto
          107 callgsubr
        </CharString>
        <CharString name="dvHA_mU">
          -19 343 -360 rmoveto
          127 77 59 97 101 -68 57 -139 -129 -69 72 92 87 57 75 108 113 44 -80 -70 hvcurveto
          61 hlineto
          96 -59 106 -158 321 callgsubr
          -19 vhcurveto
          136 callsubr
          -121 89 -96 172 102 49 -38 -68 -67 -59 -38 -89 -101 -81 46 102 6 vhcurveto
          -57 hlineto
          -135 -6 107 -64 132 hhcurveto
          endchar
        </CharString>
        <CharString name="dvHA_mUU">
          -19 320 -351 rmoveto
          48 vlineto
          -1 -13 -12 -1 -11 hhcurveto
          -62 -46 38 62 65 51 43 82 107 75 -79 -135 hvcurveto
          -35 54 27 vlineto
          164 -86 109 -150 vhcurveto
          0 vlineto
          -109 1 -58 72 91 vvcurveto
          87 57 75 108 113 45 -80 -71 -1 vhcurveto
          61 hlineto
          96 1 -60 107 -158 hhcurveto
          321 callgsubr
          -19 hvcurveto
          136 callsubr
          -84 41 -72 81 -34 vhcurveto
          -49 -26 -29 -47 -61 vvcurveto
          -96 69 -53 89 14 12 1 2 13 vhcurveto
          endchar
        </CharString>
        <CharString name="dvHA_mvR">
          60 386 -191 rmoveto
          47 vlineto
          -159 -97 102 137 117 67 104 168 106 57 -39 -67 22 hvcurveto
          2 -24 -29 1 -43 hhcurveto
          -95 -48 -52 -68 -84 71 -37 71 37 26 4 7 20 hvcurveto
          41 vlineto
          -7 -23 -26 -4 -25 hhcurveto
          -53 -49 25 56 45 30 37 67 hvcurveto
          143 hlineto
          104 -12 -78 81 -147 254 callsubr
          300 177 119 54 -723 -54 548 -131 -261 266 callgsubr
          -161 112 -129 196 2 vhcurveto
          endchar
        </CharString>
        <CharString name="dvH_LA">
          89 371 -186 rmoveto
          44 vlineto
          -149 -93 102 135 117 67 105 169 103 62 -49 -63 21 hvcurveto
          -45 -10 -21 -35 -7 -33 rrcurveto
          -2 hlineto
          39 -9 -28 42 -61 hhcurveto
          -68 -43 -47 -73 -75 43 -55 86 6 6 0 1 7 hvcurveto
          36 vlineto
          -1 -6 -5 0 -6 hhcurveto
          -59 -30 39 54 48 26 37 47 48 27 -41 -61 hvcurveto
          -7 39 7 vlineto
          63 27 39 50 45 26 -37 -49 -53 -31 -39 -59 -5 -5 0 1 -5 vhcurveto
          -36 vlineto
          -1 6 6 0 6 hhcurveto
          86 44 55 75 66 -36 45 -56 8 hvcurveto
          88 -22 -77 66 -133 254 callsubr
          307 177 141 54 -752 -54 556 -131 -269 266 callgsubr
          -158 109 -127 184 2 vhcurveto
          endchar
        </CharString>
        <CharString name="dvH_MA">
          624 166 420 rmoveto
          66 56 23 63 vhcurveto
          186 177 325 -235 -103 hlineto
          -89 -69 -43 -76 -20 hvcurveto
          -207 310 callgsubr
          517 -254 99 callgsubr
          -746 -788 210 callgsubr
          110 hvcurveto
          200 hlineto
          -100 100 callgsubr
          -1287 -54 438 307 callsubr
          vlineto
          204 callsubr
        </CharString>
        <CharString name="dvH_NA">
          630 166 420 rmoveto
          66 56 23 63 vhcurveto
          186 177 575 263 callgsubr
          hlineto
          -112 -84 -65 -109 -8 hvcurveto
          -199 310 callgsubr
          540 -235 -105 callgsubr
          -399 -287 210 callgsubr
          111 hvcurveto
          201 hlineto
          -92 17 77 -58 101 18 callgsubr
          141 54 -1280 -54 438 -130 -143 hlineto
          204 callsubr
        </CharString>
        <CharString name="dvH_NNA">
          56 361 27 rmoveto
          -46 -26 36 50 hvcurveto
          197 vlineto
          4 21 24 2 26 hhcurveto
          27 25 -3 -5 21 hvcurveto
          -195 vlineto
          -50 -27 -36 -45 vhcurveto
          -20 -167 rmoveto
          -129 5 -80 95 135 vvcurveto
          90 26 79 90 34 vhcurveto
          -181 vlineto
          -72 40 -53 72 73 39 53 72 vhcurveto
          178 vlineto
          76 -35 27 -76 -90 vvcurveto
          -137 49 137 vlineto
          145 -73 122 -192 -48 -42 -7 -13 -35 vhcurveto
          -42 16 -28 28 43 296 callgsubr
          284 177 137 54 -725 -54 532 -131 -245 hlineto
          -89 -66 -36 -81 -60 41 -38 46 -20 hvcurveto
          -76 -46 -36 -80 313 callsubr
        </CharString>
        <CharString name="dvH_R">
          16 callsubr
          -133 -435 -15 callsubr
          endchar
        </CharString>
        <CharString name="dvH_RA">
          16 callsubr
          endchar
        </CharString>
        <CharString name="dvH_VA">
          41 432 -6 rmoveto
          -59 -42 38 64 63 46 38 55 -1 hvcurveto
          72 -1 31 -53 -48 vvcurveto
          -45 -31 -55 -72 vhcurveto
          -91 -180 rmoveto
          46 vlineto
          -128 5 -80 95 135 vvcurveto
          120 73 99 143 105 67 -63 -82 12 vhcurveto
          -20 35 -37 27 -55 -1 -76 -1 -61 -51 1 -82 rrcurveto
          -82 57 -54 79 59 39 31 38 18 vhcurveto
          -118 47 218 vlineto
          126 -83 106 -158 -40 -36 -7 -12 -32 vhcurveto
          -40 13 -31 28 45 296 callgsubr
          247 177 135 54 -686 -54 495 -131 -208 hlineto
          -89 -66 -36 -81 -62 42 -37 46 -20 hvcurveto
          -72 -46 -41 -79 313 callsubr
        </CharString>
        <CharString name="dvH_YA">
          279 543 -57 rmoveto
          -94 -59 60 84 hvcurveto
          2 0 2 1 vvcurveto
          90 4 68 35 88 vvcurveto
          102 -90 40 -103 -45 -40 -8 -14 -35 vhcurveto
          -43 16 -29 29 44 296 callgsubr
          230 177 209 -528 hlineto
          -122 -56 -93 -114 vhcurveto
          172 -88 rmoveto
          57 831 141 54 -942 -54 476 -131 -190 hlineto
          -89 -66 -36 -81 -62 42 -38 48 -21 hvcurveto
          -74 -48 -41 -85 -103 vvcurveto
          -169 113 -133 192 -4 vhcurveto
          47 vlineto
          -156 6 -93 107 145 vvcurveto
          129 76 103 146 67 71 -23 -75 -64 -52 -27 -93 vhcurveto
          -10 hlineto
          -1 -11 -1 -11 -11 vvcurveto
          -108 67 -85 130 91 60 46 72 31 vhcurveto
          endchar
        </CharString>
        <CharString name="dvI">
          -24 -40 686 rmoveto
          442 276 callsubr
          hlineto
          98 callsubr
          166 hlineto
          71 callgsubr
          -661 hlineto
          endchar
        </CharString>
        <CharString name="dvII">
          -24 159 91 rmoveto
          71 callgsubr
          -159 77 202 callsubr
          -77 -442 -54 442 276 callsubr
          vlineto
          98 callsubr
          hlineto
          endchar
        </CharString>
        <CharString name="dvII_Anusvara">
          -24 159 91 rmoveto
          71 callgsubr
          -159 79 hlineto
          90 38 50 73 66 40 -47 -58 vhcurveto
          53 hlineto
          94 1 -61 62 -97 hhcurveto
          -115 -55 -77 -113 hvcurveto
          -80 -445 -54 442 276 callsubr
          vlineto
          98 callsubr
          hlineto
          411 877 22 callgsubr
        </CharString>
        <CharString name="dvJ">
          104 callsubr
          endchar
        </CharString>
        <CharString name="dvJA">
          230 120 callsubr
          689 230 callsubr
          hlineto
          -81 callsubr
          210 -447 93 callgsubr
          -893 vlineto
          endchar
        </CharString>
        <CharString name="dvJH">
          -33 166 89 rmoveto
          10 callsubr
          222 -1 rlineto
          49 -407 vlineto
          12 callsubr
          217 54 -710 -54 431 276 callsubr
          hlineto
          32 callgsubr
        </CharString>
        <CharString name="dvJHA">
          239 274 320 rmoveto
          12 callsubr
          205 -366 hlineto
          -320 vmoveto
          -36 callsubr
          -902 -54 431 276 callsubr
          hlineto
          10 callgsubr
          164 hlineto
          10 callsubr
          210 -1 rlineto
          endchar
        </CharString>
        <CharString name="dvJH_MA">
          743 1172 451 76 callsubr
          -370 -520 -94 callsubr
          -528 154 rmoveto
          12 callsubr
          451 -235 -103 hlineto
          -93 -72 -47 -84 -16 hvcurveto
          -465 -231 rmoveto
          10 callsubr
          168 -1 rlineto
          -96 5 69 -64 101 hhcurveto
          149 callsubr
          141 54 -1406 -54 431 276 callsubr
          vlineto
          32 callgsubr
        </CharString>
        <CharString name="dvJH_NA">
          729 274 320 rmoveto
          12 callsubr
          695 263 callgsubr
          hlineto
          -116 -86 -69 -117 -2 hvcurveto
          199 -135 -105 callgsubr
          -653 -96 rmoveto
          10 callsubr
          166 -1 rlineto
          -87 20 75 -54 98 18 callgsubr
          141 54 -1393 -54 431 276 callsubr
          hlineto
          32 callgsubr
        </CharString>
        <CharString name="dvJH_R">
          -33 166 89 rmoveto
          10 callsubr
          241 -1 rlineto
          49 -426 vlineto
          12 callsubr
          236 54 -729 -54 431 276 callsubr
          hlineto
          174 callsubr
          534 194 rmoveto
          71 vlineto
          -226 -295 rlineto
          66 hlineto
          endchar
        </CharString>
        <CharString name="dvJH_RA">
          293 274 320 rmoveto
          12 callsubr
          260 -366 hlineto
          1 -320 rmoveto
          62 -47 callsubr
          -956 -54 431 276 callsubr
          hlineto
          10 callgsubr
          164 hlineto
          10 callsubr
          265 -1 rlineto
          -21 vlineto
          1 -11 rlineto
          -11 vlineto
          -251 -333 rlineto
          66 hlineto
          185 255 rlineto
          endchar
        </CharString>
        <CharString name="dvJH_YA">
          684 274 320 rmoveto
          12 callsubr
          371 131 callsubr
          -29 3 -27 5 -25 vhcurveto
          267 -146 rmoveto
          -92 callsubr
          -738 -85 rmoveto
          10 callsubr
          192 -1 rlineto
          -95 38 83 -57 120 hhcurveto
          114 74 227 callgsubr
          -1347 -54 431 276 callsubr
          vlineto
          32 callgsubr
        </CharString>
        <CharString name="dvJ_BA">
          627 871 148 rmoveto
          -107 -90 69 120 49 15 41 24 32 hvcurveto
          291 -261 rlineto
          -30 -31 -44 -20 -58 hhcurveto
          188 -148 rmoveto
          62 -47 callsubr
          -1290 -54 1088 -228 hlineto
          182 callgsubr
          -72 -64 -27 -47 -43 hvcurveto
          -290 -167 hlineto
          -81 callsubr
          191 vlineto
          -16 -32 -8 -37 -41 vvcurveto
          102 callgsubr
          vhcurveto
          -190 316 rmoveto
          130 63 -100 -92 -39 -12 -43 -26 -35 hvcurveto
          -289 261 rlineto
          31 35 47 17 52 hhcurveto
          endchar
        </CharString>
        <CharString name="dvJ_DA">
          556 1080 -11 rmoveto
          -51 callsubr
          -1220 -54 1004 274 callsubr
          -77 -71 -22 -44 -49 hvcurveto
          -308 -167 hlineto
          -81 callsubr
          203 vlineto
          -17 -31 -9 -38 -44 256 callgsubr
        </CharString>
        <CharString name="dvJ_DDA">
          494 839 -13 rmoveto
          -54 callsubr
          168 180 146 54 -1156 -54 948 307 callgsubr
          hlineto
          -57 -58 -14 -37 -34 hvcurveto
          -257 -167 hlineto
          -81 callsubr
          167 vlineto
          -2 -10 -1 -11 -12 vvcurveto
          -106 89 -35 86 vhcurveto
          18 callsubr
        </CharString>
        <CharString name="dvJ_JA">
          800 1293 295 callgsubr
          -1462 -54 1258 -184 -272 -167 vlineto
          -28 callsubr
          -326 -167 vlineto
          -81 callsubr
          200 -112 142 callgsubr
          210 -447 vlineto
          endchar
        </CharString>
        <CharString name="dvJ_JHA">
          785 820 320 rmoveto
          12 callsubr
          205 -366 hlineto
          -320 vmoveto
          -36 callsubr
          -1448 -54 977 276 callsubr
          hlineto
          -57 -59 -13 -38 -35 hvcurveto
          -278 -167 hlineto
          -81 callsubr
          188 vlineto
          -3 -10 -1 -12 -12 vvcurveto
          219 callsubr
          vhcurveto
          -3 callgsubr
          164 hlineto
          10 callsubr
          210 -1 rlineto
          endchar
        </CharString>
        <CharString name="dvJ_J_NYA">
          718 1149 hmoveto
          62 -96 callgsubr
          -1381 -54 1178 -184 -761 -167 hlineto
          -82 callsubr
          114 335 vlineto
          105 80 -57 -104 -83 -55 -65 -90 -80 -75 48 95 -10 hvcurveto
          -60 -270 63 169 hlineto
          -50 27 63 -45 88 hhcurveto
          111 77 76 112 87 -46 58 -65 29 hvcurveto
          231 hlineto
          endchar
        </CharString>
        <CharString name="dvJ_J_VA">
          1187 1435 156 39 callsubr
          -1850 -54 1647 -27 callsubr
          -68 -60 -25 -43 -41 hvcurveto
          -294 -167 hlineto
          -28 callsubr
          -326 -167 vlineto
          -81 callsubr
          200 -112 142 callgsubr
          194 vlineto
          -15 -31 -8 -36 -40 vvcurveto
          -144 -43 callsubr
        </CharString>
        <CharString name="dvJ_J_YA">
          1256 1476 174 rmoveto
          -134 -78 145 callgsubr
          -1919 -54 1436 -75 vlineto
          -111 -75 -32 -112 vhcurveto
          -263 -133 hlineto
          275 callgsubr
          -74 -46 57 82 vhcurveto
          133 -326 -133 vlineto
          -19 callgsubr
          133 -64 -133 33 callsubr
          78 201 -78 vlineto
          -115 66 346 callsubr
          79 156 vlineto
          10 8 0 7 hhcurveto
          330 callsubr
          75 54 65 34 hvcurveto
          -238 vlineto
          endchar
        </CharString>
        <CharString name="dvJ_KA">
          948 1027 hmoveto
          -95 callsubr
          -1611 -54 1056 -233 vlineto
          63 -28 -59 50 -98 hhcurveto
          -63 -56 -23 -41 -39 hvcurveto
          -296 -167 hlineto
          -81 callsubr
          197 vlineto
          -14 -31 -8 -36 -41 vvcurveto
          126 callgsubr
          -59 callgsubr
          endchar
        </CharString>
        <CharString name="dvJ_MA">
          724 1153 485 rmoveto
          -198 201 198 hlineto
          -370 -487 rmoveto
          -66 -49 46 70 72 52 45 75 hvcurveto
          100 -104 hlineto
          -81 -42 -48 -70 vhcurveto
          434 -199 rmoveto
          -96 callgsubr
          -1387 -54 924 -201 -507 -150 vlineto
          -19 callgsubr
          150 -64 -150 33 callsubr
          98 209 vlineto
          -32 -28 -19 -40 -53 vvcurveto
          -100 70 -68 106 108 63 67 120 vhcurveto
          101 198 -432 vlineto
          endchar
        </CharString>
        <CharString name="dvJ_NA">
          723 809 180 227 callsubr
          -78 -78 -57 -56 -79 hvcurveto
          404 -180 rmoveto
          -96 callgsubr
          -1383 -54 1179 -184 -762 -167 vlineto
          -81 callsubr
          214 vlineto
          285 callsubr
          70 111 64 -29 49 -38 29 vhcurveto
          219 -449 hlineto
          endchar
        </CharString>
        <CharString name="dvJ_NY">
          -73 120 callsubr
          731 54 -731 hlineto
          272 -262 rmoveto
          55 callsubr
          311 53 -459 hlineto
          endchar
        </CharString>
        <CharString name="dvJ_NYA">
          191 621 hmoveto
          -36 callsubr
          -854 -54 650 -155 -378 -53 55 callsubr
          230 hlineto
          endchar
        </CharString>
        <CharString name="dvJ_NY_YA">
          701 921 174 rmoveto
          -133 -67 85 137 -11 hvcurveto
          5 vlineto
          126 6 79 58 136 vvcurveto
          85 216 177 callgsubr
          273 -174 rmoveto
          -96 callgsubr
          -1364 -54 880 -75 vlineto
          -118 -63 -41 -97 -6 vhcurveto
          49 -25 -54 36 -87 hhcurveto
          -282 -53 55 callsubr
          133 hlineto
          69 43 -35 -47 12 hvcurveto
          -166 10 83 -111 168 hhcurveto
          182 callsubr
          hvcurveto
          -238 vlineto
          endchar
        </CharString>
        <CharString name="dvJ_R">
          81 callsubr
          endchar
        </CharString>
        <CharString name="dvJ_RA">
          69 callsubr
          endchar
        </CharString>
        <CharString name="dvJ_TA">
          638 1132 295 callgsubr
          -1301 -54 1097 -187 -680 -164 vlineto
          -19 callgsubr
          164 -64 -164 33 callsubr
          109 280 vlineto
          -64 -37 -38 -65 -96 vvcurveto
          -157 103 -87 339 callsubr
          -132 -72 72 123 133 89 62 135 hvcurveto
          152 -444 hlineto
          endchar
        </CharString>
        <CharString name="dvJ_TTA">
          594 888 49 rmoveto
          199 callgsubr
          -61 -86 callgsubr
          -1257 -54 972 -126 -32 hlineto
          -78 -69 -19 -39 -51 hvcurveto
          -325 -167 hlineto
          -81 callsubr
          212 vlineto
          -26 -39 -14 -50 -59 256 callsubr
        </CharString>
        <CharString name="dvJ_VA">
          618 866 156 39 callsubr
          -1281 -54 1078 -27 callsubr
          -68 -60 -25 -43 -41 hvcurveto
          -294 -167 hlineto
          -81 callsubr
          194 vlineto
          -15 -31 -8 -36 -40 vvcurveto
          -144 -43 callsubr
        </CharString>
        <CharString name="dvJ_YA">
          -3 callsubr
          endchar
        </CharString>
        <CharString name="dvJx">
          104 callsubr
          298 -779 rmoveto
          -101 callgsubr
          endchar
        </CharString>
        <CharString name="dvJxA">
          230 120 callsubr
          689 230 callsubr
          hlineto
          -81 callsubr
          210 -447 93 callgsubr
          -893 vlineto
          298 -779 rmoveto
          -101 callgsubr
          endchar
        </CharString>
        <CharString name="dvJx_JxA">
          800 269 163 callsubr
          569 hmoveto
          -101 callgsubr
          455 39 183 callgsubr
          -1462 -54 1258 -184 -272 -167 vlineto
          -28 callsubr
          -326 -167 vlineto
          -81 callsubr
          200 -112 142 callgsubr
          210 -447 vlineto
          endchar
        </CharString>
        <CharString name="dvJx_R">
          81 callsubr
          -122 -205 -15 callgsubr
          endchar
        </CharString>
        <CharString name="dvJx_RA">
          69 callsubr
          171 -736 -15 callgsubr
          endchar
        </CharString>
        <CharString name="dvJx_YA">
          -3 callsubr
          -847 163 callsubr
          endchar
        </CharString>
        <CharString name="dvK">
          26 callgsubr
          endchar
        </CharString>
        <CharString name="dvKA">
          3 callgsubr
          endchar
        </CharString>
        <CharString name="dvKH">
          71 120 callsubr
          300 -133 hlineto
          -127 -69 -29 -76 vhcurveto
          -38 -162 hlineto
          -149 96 -88 145 113 75 68 82 35 vhcurveto
          -3 17 18 -29 callgsubr
          480 -393 85 callsubr
          endchar
        </CharString>
        <CharString name="dvKHA">
          321 603 194 86 callgsubr
          -11 -51 114 callsubr
          -261 -89 -38 callsubr
          endchar
        </CharString>
        <CharString name="dvKH_KHA">
          995 451 347 85 callsubr
          826 -153 254 callgsubr
          148 -194 rmoveto
          -36 callsubr
          -1658 78 callgsubr
          66 55 21 40 36 hvcurveto
          -130 13 91 -76 136 hhcurveto
          113 74 67 81 35 hvcurveto
          -2 13 13 -1 14 hhcurveto
          83 52 41 53 25 hvcurveto
          -420 -183 rmoveto
          -112 -68 70 104 hvcurveto
          121 4 281 callsubr
          -52 41 -83 hhcurveto
          -111 -87 -79 -122 -90 42 -65 63 -31 hvcurveto
          -59 -26 -54 -51 -87 hhcurveto
          -674 hmoveto
          -80 callgsubr
          610 -139 vlineto
          -120 -61 -33 -72 -3 vhcurveto
          99 -17 -77 60 -111 hhcurveto
          125 callgsubr
          endchar
        </CharString>
        <CharString name="dvKH_MA">
          872 1301 451 258 callgsubr
          -850 -339 85 callsubr
          479 -181 -21 callgsubr
        </CharString>
        <CharString name="dvKH_NA">
          871 959 185 345 callsubr
          57 -56 -78 -78 -57 -55 -80 hvcurveto
          -353 8 -60 callsubr
          967 -180 -336 vlineto
          -73 -59 -27 -49 -34 hvcurveto
          76 -29 -71 44 -95 hhcurveto
          -126 -84 241 callgsubr
          80 63 32 57 35 hvcurveto
          -64 30 64 -38 83 hhcurveto
          108 80 312 callsubr
          -36 callsubr
          -1534 78 callgsubr
          endchar
        </CharString>
        <CharString name="dvKH_R">
          71 120 callsubr
          -20 callsubr
          23 17 26 12 28 rrcurveto
          -3 17 19 -29 callgsubr
          635 -547 rmoveto
          -93 -62 61 93 93 62 61 93 94 62 -61 -93 -93 -62 -61 -94 hvcurveto
          endchar
        </CharString>
        <CharString name="dvKH_RA">
          321 751 hmoveto
          -36 callsubr
          -984 -54 -20 callsubr
          22 16 26 12 28 rrcurveto
          -3 14 14 -1 14 hhcurveto
          82 51 41 52 26 hvcurveto
          -148 -42 86 callgsubr
          -272 -140 -38 callsubr
          endchar
        </CharString>
        <CharString name="dvKH_SHA">
          859 606 193 -43 callgsubr
        </CharString>
        <CharString name="dvKH_TA">
          759 606 193 -27 callgsubr
        </CharString>
        <CharString name="dvKH_VA">
          754 1185 hmoveto
          34 callgsubr
          -396 37 -60 callsubr
          851 -27 callsubr
          -91 -73 -44 -73 -35 hvcurveto
          62 -34 -65 35 -85 hhcurveto
          -126 -84 -14 callsubr
          endchar
        </CharString>
        <CharString name="dvKH_YA">
          813 606 193 -35 callgsubr
        </CharString>
        <CharString name="dvKHx">
          71 120 callsubr
          300 -133 hlineto
          -127 -69 -29 -76 vhcurveto
          -38 -162 hlineto
          -149 96 -88 145 113 75 68 82 35 vhcurveto
          -3 17 18 -29 callgsubr
          342 -919 rmoveto
          -101 callgsubr
          138 526 85 callsubr
          endchar
        </CharString>
        <CharString name="dvKHxA">
          321 592 143 114 callsubr
          -279 -322 rmoveto
          -101 callgsubr
          290 373 86 callgsubr
          -272 -140 -38 callsubr
          endchar
        </CharString>
        <CharString name="dvKHx_MA">
          872 313 -179 rmoveto
          -101 callgsubr
          138 526 85 callsubr
          850 104 258 callgsubr
          -371 -520 -21 callgsubr
        </CharString>
        <CharString name="dvKHx_R">
          71 120 callsubr
          -20 callsubr
          23 17 26 12 28 rrcurveto
          -3 17 19 -29 callgsubr
          133 -851 -15 callgsubr
          502 304 rmoveto
          -93 -62 61 93 93 62 61 93 94 62 -61 -93 -93 -62 -61 -94 hvcurveto
          endchar
        </CharString>
        <CharString name="dvKHx_RA">
          321 751 hmoveto
          -36 callsubr
          -984 -54 -20 callsubr
          22 16 26 12 28 rrcurveto
          -3 14 14 -1 14 hhcurveto
          82 51 41 52 26 hvcurveto
          -647 -347 -15 callgsubr
          499 305 86 callgsubr
          -272 -140 -38 callsubr
          endchar
        </CharString>
        <CharString name="dvKHx_SA">
          887 322 -181 rmoveto
          -101 callgsubr
          284 374 -60 callsubr
          706 -98 vlineto
          -108 -62 -69 -117 vhcurveto
          -55 hlineto
          88 -24 -75 51 -103 196 callsubr
          -64 65 -31 hvcurveto
          -60 -26 -54 -52 -88 hhcurveto
          772 534 208 callsubr
          -49 -59 -80 -88 -41 66 91 vhcurveto
          160 490 -363 93 callgsubr
          -1550 -54 284 callsubr
          vlineto
          -77 callgsubr
          16 18 -2 18 hhcurveto
          67 56 22 41 36 hvcurveto
          -125 247 callgsubr
          endchar
        </CharString>
        <CharString name="dvKHx_SHA">
          859 322 -181 rmoveto
          -101 callgsubr
          284 374 -43 callgsubr
        </CharString>
        <CharString name="dvKHx_TA">
          759 322 -181 rmoveto
          -101 callgsubr
          284 374 -27 callgsubr
        </CharString>
        <CharString name="dvKHx_VA">
          754 322 -181 rmoveto
          -101 callgsubr
          284 374 rmoveto
          -93 -62 61 93 93 62 61 93 94 62 -61 -93 -93 -62 -61 -94 hvcurveto
          579 -193 rmoveto
          34 callgsubr
          -671 -102 rmoveto
          -80 callgsubr
          851 -27 callsubr
          -91 -73 -44 -73 -35 hvcurveto
          62 -34 -65 35 -85 hhcurveto
          -126 -84 -14 callsubr
          endchar
        </CharString>
        <CharString name="dvKHx_YA">
          813 322 -181 rmoveto
          -101 callgsubr
          284 374 -35 callgsubr
        </CharString>
        <CharString name="dvK_CA">
          779 1026 158 rmoveto
          -90 -78 57 106 97 66 72 107 hvcurveto
          34 52 -335 hlineto
          -106 -60 -46 -62 -27 hvcurveto
          252 671 -341 vlineto
          -102 -74 -84 -108 -1 vhcurveto
          -719 3 -107 callgsubr
          230 158 rmoveto
          84 47 87 130 vhcurveto
          195 hlineto
          -71 -32 -41 -67 -84 vvcurveto
          -132 97 -71 117 89 72 45 68 36 vhcurveto
          -217 -28 callgsubr
          -1442 -87 callsubr
          endchar
        </CharString>
        <CharString name="dvK_DA">
          777 272 callgsubr
          659 274 callsubr
          -97 -86 -34 -70 -47 hvcurveto
          64 -34 -62 38 -78 hhcurveto
          -94 -54 -49 -63 -25 hvcurveto
          -230 -293 -107 callgsubr
          994 -172 rmoveto
          251 callgsubr
          -105 -86 -43 -69 -106 -68 68 105 120 94 60 112 vhcurveto
          292 callsubr
          -1440 -1 callsubr
          -106 vhcurveto
          0 vlineto
          -1 0 -2 -2 vvcurveto
          -141 91 -85 131 76 64 34 51 28 vhcurveto
          -204 vlineto
          endchar
        </CharString>
        <CharString name="dvK_JA">
          997 51 callgsubr
          724 35 rmoveto
          -74 -45 57 82 hvcurveto
          17 vlineto
          126 -81 88 -121 -94 -54 -49 -63 -25 vhcurveto
          232 889 247 callsubr
          vhcurveto
          -494 134 295 callsubr
          89 337 callgsubr
          66 -81 116 116 70 174 callgsubr
          112 210 -447 -28 callgsubr
          -1660 -87 callsubr
          endchar
        </CharString>
        <CharString name="dvK_KA">
          1171 51 callgsubr
          943 525 347 callgsubr
          -79 -66 -36 -61 -38 hvcurveto
          61 -34 -61 36 -77 hhcurveto
          259 callsubr
          vlineto
          713 -686 rmoveto
          -95 callsubr
          -1834 0 callgsubr
          -106 126 callgsubr
          -59 callgsubr
          endchar
        </CharString>
        <CharString name="dvK_KHA">
          1081 710 564 rmoveto
          -94 -54 -49 -63 -25 hvcurveto
          234 493 -133 vlineto
          -118 -58 -33 -69 -4 vhcurveto
          101 -20 -71 65 -102 179 callgsubr
          1204 -161 rmoveto
          -36 callsubr
          -1744 -1 callsubr
          -106 vhcurveto
          -110 vlineto
          -143 95 -88 146 113 74 67 81 36 vhcurveto
          -2 13 13 -1 14 hhcurveto
          82 52 41 53 25 hvcurveto
          -148 -43 254 callgsubr
          -272 -140 rmoveto
          -111 -68 70 104 hvcurveto
          121 3 281 callsubr
          -51 41 -83 hhcurveto
          -112 -87 -79 -122 -90 42 -65 64 -31 hvcurveto
          -59 -27 -54 -51 -87 hhcurveto
          endchar
        </CharString>
        <CharString name="dvK_LA">
          1069 1225 395 rmoveto
          -69 callsubr
          -76 -60 -33 -58 -35 hvcurveto
          67 -32 -61 40 -77 165 callgsubr
          233 843 29 callgsubr
          -918 -234 -107 callgsubr
          230 169 295 callsubr
          87 64 -63 -102 3 vhcurveto
          -1 -7 0 -9 -8 vvcurveto
          -138 79 -105 154 123 callgsubr
          vhcurveto
          -101 callsubr
          -62 callsubr
          -1732 -87 callsubr
          endchar
        </CharString>
        <CharString name="dvK_MA">
          952 710 564 rmoveto
          200 callsubr
          233 587 270 callgsubr
          92 -24 -68 57 -97 179 callgsubr
          704 5 13 callsubr
        </CharString>
        <CharString name="dvK_NA">
          956 710 566 rmoveto
          259 callsubr
          848 220 callgsubr
          -67 -57 -23 -42 -37 hvcurveto
          79 -27 -64 46 -88 hhcurveto
          -403 -405 -107 callgsubr
          738 24 -105 callgsubr
          -508 145 295 callsubr
          87 64 -63 -102 3 vhcurveto
          -1 -9 -1 -10 -10 -4 callsubr
          -28 callgsubr
          -1619 75 callsubr
        </CharString>
        <CharString name="dvK_NNA">
          991 272 callgsubr
          308 -180 hlineto
          35 -34 -46 21 -56 hhcurveto
          -93 232 callsubr
          -230 -290 -107 callgsubr
          720 87 rmoveto
          -47 callgsubr
          -490 82 295 callsubr
          78 59 -51 -78 14 vhcurveto
          -12 1 -11 2 -11 vhcurveto
          -1 vlineto
          0 vlineto
          -90 14 62 -63 102 hhcurveto
          119 64 81 113 hvcurveto
          298 212 258 callsubr
          -1654 -87 callsubr
          endchar
        </CharString>
        <CharString name="dvK_PA">
          769 272 callgsubr
          277 -160 hlineto
          25 -30 -38 13 -43 hhcurveto
          -89 -53 -48 -62 -24 hvcurveto
          -230 -293 -107 callgsubr
          734 101 rmoveto
          -74 callgsubr
          -504 68 rmoveto
          85 38 96 111 63 50 -41 -67 18 vhcurveto
          -120 14 69 -76 126 287 callsubr
          -1432 -87 callsubr
          endchar
        </CharString>
        <CharString name="dvK_PHA">
          1129 272 callgsubr
          300 -166 hlineto
          28 -33 147 callsubr
          747 101 -91 callgsubr
          -517 68 295 callsubr
          70 55 -41 -68 20 vhcurveto
          -120 14 67 -75 120 hhcurveto
          78 55 36 57 30 hvcurveto
          -87 callgsubr
          -1792 -87 callsubr
          endchar
        </CharString>
        <CharString name="dvK_P_RA">
          769 272 callgsubr
          277 -160 hlineto
          25 -30 -38 13 -43 hhcurveto
          -89 -53 -48 -62 -24 hvcurveto
          -230 -293 -107 callgsubr
          734 101 40 callsubr
          -1432 250 callgsubr
          hlineto
          -58 callgsubr
          38 96 111 64 49 -41 -68 18 vhcurveto
          -118 14 70 -74 125 7 callsubr
          endchar
        </CharString>
        <CharString name="dvK_R">
          143 338 callsubr
          84 1 46 97 117 hhcurveto
          233 callsubr
          hvcurveto
          64 hlineto
          137 -90 90 -120 -96 -58 -51 -65 -27 vhcurveto
          236 391 54 -957 35 callgsubr
        </CharString>
        <CharString name="dvK_RA">
          397 476 hmoveto
          -30 callsubr
          -1060 35 callgsubr
        </CharString>
        <CharString name="dvK_SA">
          973 -67 callgsubr
          214 -271 -290 vlineto
          -1 callgsubr
          44 278 callgsubr
          160 490 -363 64 686 141 54 -1636 -54 505 -233 vlineto
          -30 callgsubr
        </CharString>
        <CharString name="dvK_SHA">
          951 51 callgsubr
          403 403 rmoveto
          -94 -54 -49 -63 -25 hvcurveto
          234 469 vlineto
          5 15 16 2 18 hhcurveto
          85 54 -56 -92 -109 -86 -53 -111 hvcurveto
          -92 hlineto
          110 -15 -73 71 -107 hhcurveto
          344 -572 rmoveto
          119 11 callgsubr
          -50 -60 -82 -97 -44 69 92 vhcurveto
          120 104 vlineto
          138 11 callsubr
          -23 -21 -3 -6 -18 hvcurveto
          -1023 -1 callsubr
          -106 vhcurveto
          -127 vlineto
          -132 72 -88 134 vhcurveto
          326 8 rmoveto
          -28 callgsubr
          -205 hlineto
          endchar
        </CharString>
        <CharString name="dvK_SS">
          -83 159 573 -65 callgsubr
          307 49 -239 hlineto
          45 35 34 44 70 -24 callsubr
          endchar
        </CharString>
        <CharString name="dvK_SSA">
          180 159 573 -65 callgsubr
          288 -386 61 -96 callgsubr
          -202 -305 -220 hlineto
          45 35 34 44 70 -24 callsubr
          endchar
        </CharString>
</ttFont>
